<svg width="900.94" height="787" xmlns="http://www.w3.org/2000/svg" data-name="Layer 1">
 <defs>
  <linearGradient y2="0" x2="0.49999" y1="1.00009" x1="0.49999" id="33dd52eb-d837-4874-aadb-63a17bd6edfc">
   <stop stop-opacity="0.25" stop-color="gray" offset="0"/>
   <stop stop-opacity="0.12" stop-color="gray" offset="0.54"/>
   <stop stop-opacity="0.1" stop-color="gray" offset="1"/>
  </linearGradient>
 </defs>
 <title>coding</title>
 <g>
  <title>Layer 1</title>
  <rect id="svg_1" opacity="0.2" fill="#6c63ff" height="27" width="52" y="283" x="763.63"/>
  <rect id="svg_2" opacity="0.2" fill="#6c63ff" height="27" width="52" y="316" x="767.63"/>
  <rect id="svg_3" opacity="0.2" fill="#6c63ff" height="27" width="52" y="87" x="724.63"/>
  <rect id="svg_4" opacity="0.2" fill="#6c63ff" height="27" width="52" y="118" x="761.63"/>
  <rect id="svg_5" opacity="0.2" fill="#6c63ff" height="27" width="52" y="89" x="661.63"/>
  <rect id="svg_6" opacity="0.2" fill="#6c63ff" height="27" width="52" y="149" x="828.63"/>
  <rect id="svg_7" opacity="0.2" fill="#6c63ff" height="27" width="52" y="151" x="765.63"/>
  <rect id="svg_8" opacity="0.2" fill="#6c63ff" height="27" width="52" y="120" x="698.63"/>
  <rect id="svg_9" opacity="0.2" fill="#6c63ff" height="27" width="52" y="357" x="825.63"/>
  <rect id="svg_10" opacity="0.2" fill="#6c63ff" height="27" width="52" y="359" x="762.63"/>
  <path id="svg_11" fill="#6c63ff" d="m130.75,276s73.29,73.29 31.92,182s70.91,289.64 70.91,289.64s-1.2,-0.18 -3.43,-0.57c-150.52,-26.57 -225.31,-198.72 -141.57,-326.57c31.08,-47.59 56.62,-103.36 42.17,-144.5z"/>
  <path id="svg_12" stroke-width="2" stroke-miterlimit="10" stroke="#535461" fill="none" d="m130.75,276s41.37,89.84 0,163.12s-7.09,279 102.84,308.52"/>
  <path id="svg_13" fill="#6c63ff" d="m0.21,572.42s83.63,-13.32 91.25,61.63s160.82,85.34 160.82,85.34s-1,0.68 -2.87,1.91c-126.49,83 -247.4,52.89 -229.17,-57.36c6.77,-40.99 6.21,-82.16 -20.03,-91.52z"/>
  <path id="svg_14" opacity="0.2" fill="#f5f5f5" d="m0.21,572.42s83.63,-13.32 91.25,61.63s160.82,85.34 160.82,85.34s-1,0.68 -2.87,1.91c-126.49,83 -247.4,52.89 -229.17,-57.36c6.77,-40.99 6.21,-82.16 -20.03,-91.52z"/>
  <path id="svg_15" stroke-width="2" stroke-miterlimit="10" stroke="#535461" fill="none" d="m0.21,572.42s64.91,14.25 59.58,73.27s96.4,129.81 192.49,73.7"/>
  <rect id="svg_16" opacity="0.2" fill="#6c63ff" height="27" width="52" y="284" x="0.63"/>
  <rect id="svg_17" opacity="0.2" fill="#6c63ff" height="27" width="52" y="315" x="37.63"/>
  <rect id="svg_18" opacity="0.2" fill="#6c63ff" height="27" width="52" x="318.63"/>
  <rect id="svg_19" opacity="0.2" fill="#6c63ff" height="27" width="52" y="498" x="728.63"/>
  <rect id="svg_20" opacity="0.2" fill="#6c63ff" height="27" width="52" y="348" x="41.63"/>
  <rect id="svg_21" opacity="0.2" fill="#6c63ff" height="27" width="52" y="31" x="355.63"/>
  <rect id="svg_22" opacity="0.2" fill="#6c63ff" height="27" width="52" y="214" x="165.63"/>
  <rect id="svg_23" opacity="0.2" fill="#6c63ff" height="27" width="52" y="245" x="202.63"/>
  <rect id="svg_24" opacity="0.2" fill="#6c63ff" height="27" width="52" y="228" x="301.63"/>
  <rect id="svg_25" opacity="0.2" fill="#6c63ff" height="27" width="52" y="278" x="206.63"/>
  <rect id="svg_26" opacity="0.2" fill="#6c63ff" height="27" width="52" y="498" x="798.63"/>
  <path id="svg_27" fill="url(#33dd52eb-d837-4874-aadb-63a17bd6edfc)" transform="translate(-149.42 -56.5)" d="m870.07,447.61a412.25,412.25 0 0 1 -6.18,-56.71l0,0a76,76 0 0 0 -53.46,-69.38c-5.46,-1.68 -11.47,-3.25 -18.11,-4.66c-58.2,-12.36 -75.88,-1.57 -77.89,-0.15a74.63,74.63 0 0 1 -4.43,-9.61c-0.1,-0.34 -0.19,-0.68 -0.29,-1a74.51,74.51 0 0 0 19.91,-44.89c9.71,-9.84 15.38,-21.72 15.38,-34.51c0,-11 -4.2,-21.32 -11.55,-30.25l0,-17.38a75.57,75.57 0 0 0 -75.57,-75.57l-6.13,0a75.57,75.57 0 0 0 -75.57,75.57l0,18.73c-6.67,8.61 -10.45,18.44 -10.45,28.88c0,12.52 5.44,24.16 14.78,33.88a74.52,74.52 0 0 0 20.74,46.34c0.41,2.84 0.83,5.89 1.24,9.11l-104.1,21.99s-40.14,1.65 -66,55c-21.87,45.19 -65.39,161.29 -78.28,195.85l0,0c-2.33,6.26 -3.65,9.85 -3.65,9.85s0.43,-0.43 1.24,-1.17l-1.24,3.37s0.63,-0.64 1.83,-1.69c-1.82,14.46 -2.08,39.29 16.86,42.38c15.88,2.59 56.8,3.66 87.71,4.09l0,0l2.14,0c20.49,0.27 36.08,0.27 36.08,0.27l0,-0.27l332.44,0l0,-3.41a22.91,22.91 0 0 0 -1.83,-9l0.46,-0.56a18.25,18.25 0 0 1 3.45,8a8,8 0 0 1 -0.16,0.84l0.2,-0.51a8.56,8.56 0 0 1 -0.2,2.71s42.65,-109.89 42.19,-175.51a111.17,111.17 0 0 0 -1.56,-20.63zm-265.85,-116.75a76.25,76.25 0 0 1 -1.06,-9.48s0,-0.06 0,-0.09c0.37,3.09 0.73,6.29 1.06,9.57zm-129.22,236.04l0,26.19l-16.4,3.51l16.4,-29.7z"/>
  <path id="svg_28" fill="#e14b5a" d="m503.71,57.57l0,0a75.57,75.57 0 0 1 75.57,75.57l0,32.24a0,0 0 0 1 0,0l-151.14,0a0,0 0 0 1 0,0l0,-32.24a75.57,75.57 0 0 1 75.57,-75.57z"/>
  <ellipse id="svg_29" fill="#e14b5a" ry="59.19" rx="86.14" cy="175.95" cx="504.24"/>
  <path id="svg_30" fill="#f7c4a7" d="m449.02,233.29s18,94.07 0,119.44s55,35.41 55,35.41l75.56,-27.48l10.57,-67.65s-46,-25.9 -36.47,-78.22l-104.66,18.5z"/>
  <path id="svg_31" fill="#f7c4a7" d="m672.04,550.39s4.76,20.61 -21.14,24.31a146.45,146.45 0 0 1 -46.08,-0.55l-5.71,-51.77l60.25,0l12.68,28.01z"/>
  <path id="svg_32" fill="#f7c4a7" d="m214.7,524.01s-11.44,46.49 14.46,50.69s121,4.23 121,4.23l0,-55l-43.06,9.2l-40.42,-38.76l-51.98,29.64z"/>
  <path id="svg_33" opacity="0.1" d="m454.58,263.68l-101.21,21.4s-38.58,1.59 -63.42,52.85s-78.75,197.66 -78.75,197.66s46,-46.51 99.89,3.17l35.94,-65l-7.93,103.06l278.48,0l0,-48.63s58.13,31.18 53.91,48.62c0,0 49.75,-128.18 39,-186.43a396.18,396.18 0 0 1 -5.94,-54.5l0,0a73,73 0 0 0 -51.38,-66.67c-5.24,-1.61 -11,-3.12 -17.4,-4.47c-59.72,-12.68 -75,0 -75,0s-11.57,37.64 -11.36,54.7c0.26,21.93 -31.18,36.47 -31.18,36.47s-46.51,-11.1 -48.62,-20.08s-18.75,-61.58 -15.03,-72.15z"/>
  <path id="svg_34" fill="#575988" d="m454.58,261.57l-101.21,21.4s-38.58,1.59 -63.42,52.85s-78.76,197.68 -78.76,197.68s46,-46.51 99.89,3.17l35.94,-65l-7.93,103.03l278.49,0l0,-48.62s58.13,31.18 53.91,48.62c0,0 49.75,-128.18 39,-186.43a396.18,396.18 0 0 1 -5.94,-54.5l0,0a73,73 0 0 0 -51.38,-66.67c-5.24,-1.61 -11,-3.12 -17.4,-4.47c-59.72,-12.68 -75,0 -75,0s-11.57,37.64 -11.36,54.7c0.26,21.93 -31.18,36.47 -31.18,36.47s-46.51,-11.1 -48.62,-20.08s-18.75,-61.58 -15.03,-72.15z"/>
  <path id="svg_35" opacity="0.1" d="m558,257.08a71.53,71.53 0 0 1 -2.76,-37.52l-104.66,18.49s1.51,7.91 3.22,19.76a71.86,71.86 0 0 0 104.18,-0.73l0.02,0z"/>
  <path id="svg_36" fill="#f7c4a7" d="m575.85,203.17a71.88,71.88 0 0 1 -143.73,1.74c0,-0.58 0,-1.16 0,-1.74a71.89,71.89 0 0 1 40.29,-64.59q3.23,-1.58 6.64,-2.84a72.39,72.39 0 0 1 37,-3.44l0,0a71.82,71.82 0 0 1 59.61,66.1q0.19,2.37 0.19,4.77z"/>
  <g id="svg_37" opacity="0.1">
   <path id="svg_38" d="m478.94,137.43l0.1,-0.06q-3.41,1.26 -6.64,2.84a71.89,71.89 0 0 0 -40.29,64.59c0,0.58 0,1.16 0,1.74a16,16 0 0 0 6.45,-1.55c17.52,-8.18 28,-33.2 32.16,-50.65c1.5,-6.25 2.91,-13.29 8.22,-16.91z"/>
   <path id="svg_39" d="m533.95,139.44a71.28,71.28 0 0 0 -17.87,-5.51a23.06,23.06 0 0 1 12.83,8.06a32.86,32.86 0 0 1 3.93,7a72.07,72.07 0 0 0 -60.45,1.25c4.51,9.89 18.5,15.28 27.84,18.89q15.34,5.92 31,10.83l-9.24,-7.5l20.87,3.32a36.15,36.15 0 0 0 -1.46,-12.3c4,3.22 9.3,4.3 13.64,7c8.13,5.13 11.52,15 15.95,23.55c1.17,2.26 2.55,4.57 4.66,6a71.91,71.91 0 0 0 -41.7,-60.59z"/>
  </g>
  <path id="svg_40" fill="#632652" d="m478.94,135.8l0.1,-0.06q-3.41,1.26 -6.64,2.84a71.89,71.89 0 0 0 -40.29,64.59c0,0.58 0,1.16 0,1.74a16,16 0 0 0 6.45,-1.55c17.52,-8.18 28,-33.2 32.16,-50.65c1.5,-6.21 2.91,-13.28 8.22,-16.91z"/>
  <path id="svg_41" fill="#632652" d="m533.95,137.82a71.28,71.28 0 0 0 -17.87,-5.51a23.06,23.06 0 0 1 12.83,8.06a32.86,32.86 0 0 1 3.93,7a72.07,72.07 0 0 0 -60.45,1.25c4.51,9.89 18.5,15.28 27.84,18.89q15.34,5.92 31,10.83l-9.24,-7.5l20.87,3.32a36.15,36.15 0 0 0 -1.46,-12.3c4,3.22 9.3,4.3 13.64,7c8.13,5.13 11.52,15 15.95,23.55c1.17,2.26 2.55,4.57 4.66,6a71.91,71.91 0 0 0 -41.7,-60.59z"/>
  <path id="svg_42" opacity="0.1" d="m423.91,191.32s74,-92 159.61,0l-7.4,-20.61s-40.17,-58.66 -68.7,-46s-56.55,21.67 -56.55,21.67l-26.96,44.94z"/>
  <path id="svg_43" fill="#e14b5a" d="m423.91,189.69s74,-92 159.61,0l-7.4,-20.61s-40.17,-58.66 -68.7,-46s-56.55,21.67 -56.55,21.67l-26.96,44.94z"/>
  <path id="svg_44" opacity="0.1" d="m363.13,387.88s-15.85,42.28 6.34,80.33s-19.55,53.91 -19.55,53.91"/>
  <path id="svg_45" opacity="0.1" d="m619.98,349.83s27.48,34.88 9.51,66.06s-16.91,106.23 -16.91,106.23"/>
  <path id="svg_46" fill="#535461" d="m338.82,553.3l305.47,0a25.37,25.37 0 0 1 25.37,25.37l0,0a0,0 0 0 1 0,0l-356.2,0a0,0 0 0 1 0,0l0,0a25.37,25.37 0 0 1 25.36,-25.37z"/>
  <path id="svg_47" fill="#535461" d="m369.9,378.89l243.32,0a39,39 0 0 1 39,39l0,141.22a0,0 0 0 1 0,0l-321.32,0a0,0 0 0 1 0,0l0,-141.22a39,39 0 0 1 39,-39z"/>
  <circle id="svg_48" fill="#fff" r="19.03" cy="476.93" cx="491.29"/>
  <path id="svg_49" opacity="0.1" stroke-miterlimit="10" stroke="#000" fill="none" d="m428.14,148.2s72.72,-72.68 151.15,-1.33"/>
  <rect id="svg_50" fill="#6a5c99" height="41.39" width="7.3" y="143.57" x="590.36"/>
  <path id="svg_51" fill="#ffd037" d="m580.62,170.35l0,0a25.16,25.16 0 0 1 25.16,25.16l0,1.62a25.16,25.16 0 0 1 -25.16,25.16l0,0a0,0 0 0 1 0,0l0,-51.94a0,0 0 0 1 0,0z"/>
  <rect id="svg_52" fill="#6a5c99" ry="5.68" rx="5.68" height="56.81" width="11.36" y="167.92" x="575.75"/>
  <rect id="svg_53" transform="rotate(-180 974.76 386.65)" fill="#6a5c99" height="41.39" width="7.3" y="587.52999" x="1533.20001"/>
  <path id="svg_54" transform="rotate(180 976.38 450.76)" fill="#ffd037" d="m1526.7,678.42001l0,0a25.16,25.16 0 0 1 25.16,25.16l0,1.62a25.16,25.16 0 0 1 -25.16,25.16l0,0a0,0 0 0 1 0,0l0,-51.94a0,0 0 0 1 0,0z"/>
  <rect id="svg_55" transform="rotate(-180 999.92 450.76)" fill="#6a5c99" ry="5.68" rx="5.68" height="56.81" width="11.36" y="675.99001" x="1568.90998"/>
  <path id="svg_56" fill="#ffd037" d="m589.5,99.33c-9.89,-20.56 -31.43,-45.42 -77.86,-47.41l0,-0.06l-0.56,0l0,0l-16.45,0.78l0,0.08c-46.12,2.12 -67.56,26.89 -77.42,47.38a106.59,106.59 0 0 0 -10.22,44.4l5.68,-0.14l5.68,-0.13a96.65,96.65 0 0 1 9.23,-39.52c12.52,-25.72 35.56,-39.39 68.47,-40.66l0,0l14.55,-0.81l0,0c32.93,1.26 55.98,14.95 68.49,40.66a96.65,96.65 0 0 1 9.25,39.54l5.68,0.13l5.68,0.14a106.59,106.59 0 0 0 -10.2,-44.38z"/>
  <rect id="svg_57" fill="#d6d6e3" height="208" width="774.71" y="579" x="74.28"/>
  <rect id="svg_58" opacity="0.1" height="27" width="774.71" y="593" x="74.28"/>
  <rect id="svg_59" fill="#d6d6e3" height="27" width="878.63" y="576" x="22.31"/>
  <g stroke="null">

   <g stroke="null" id="svg_61">
    <metadata stroke="null" id="svg_62"/>
    <path stroke="null" fill="#009999" d="m744.17258,639.74175l0,15.00068c-8.12678,-2.93379 -15.36224,-4.41716 -21.69482,-4.41716c-3.75094,0 -6.73787,0.66422 -8.98364,1.9484c-2.24605,1.29524 -3.39221,2.88953 -3.39221,4.77153c0,2.50196 2.53535,4.72701 7.64075,6.71993l14.74892,6.86378c11.92428,5.43575 17.83999,12.65365 17.83999,21.72061c0,7.53907 -3.13736,13.55051 -9.46994,18.00087c-6.28629,4.49488 -14.74892,6.71993 -25.28375,6.71993c-4.86239,0 -9.22666,-0.19919 -13.10489,-0.61996c-3.87824,-0.39838 -8.33534,-1.21778 -13.27874,-2.3913l0,-15.6981c9.06465,2.93379 17.31898,4.41716 24.75117,4.41716c8.86792,0 13.27874,-2.45769 13.27874,-7.41734c0,-2.46876 -1.80604,-4.46142 -5.47571,-6.02251l-16.38138,-6.67566c-6.04301,-2.61262 -10.53483,-5.7788 -13.47546,-9.53173c-2.89408,-3.78613 -4.36453,-8.12583 -4.36453,-13.08548c0,-6.9415 3.05635,-12.53218 9.09936,-16.78334c6.08957,-4.21797 14.17032,-6.33236 24.21886,-6.33236c3.26465,0 7.02717,0.27665 11.19497,0.78595c4.20225,0.54249 8.2425,1.20671 12.1323,2.02612z" class="fil0"/>
    <path stroke="null" fill="#009999" d="m280.21918,639.74175l0,15.00068c-8.12705,-2.93379 -15.35094,-4.41716 -21.68351,-4.41716c-3.76252,0 -6.7376,0.66422 -8.98364,1.9484c-2.24578,1.29524 -3.39194,2.88953 -3.39194,4.77153c0,2.50196 2.57006,4.72701 7.67547,6.71993l14.74892,6.86378c11.87772,5.43575 17.80528,12.65365 17.80528,21.72061c0,7.53907 -3.14893,13.55051 -9.43522,18.00087c-6.33258,4.49488 -14.74892,6.71993 -25.31847,6.71993c-4.86239,0 -9.2385,-0.19919 -13.11673,-0.61996c-3.87824,-0.39838 -8.28905,-1.21778 -13.2669,-2.3913l0,-15.6981c9.09936,2.93379 17.3537,4.41716 24.7396,4.41716c8.86792,0 13.27874,-2.45769 13.27874,-7.41734c0,-2.46876 -1.79447,-4.46142 -5.42969,-6.02251l-16.38111,-6.67566c-6.08957,-2.61262 -10.58139,-5.7788 -13.47546,-9.53173c-2.94063,-3.78613 -4.3761,-8.12583 -4.3761,-13.08548c0,-6.9415 3.03321,-12.53218 9.11093,-16.78334c6.04328,-4.21797 14.13534,-6.33236 24.18414,-6.33236c3.29937,0 7.01559,0.27665 11.22942,0.78595c4.16781,0.54249 8.20805,1.20671 12.08629,2.02612z" class="fil0"/>
    <polygon stroke="null" fill="#009999" points="297.1213214909658,638.3355962180358 321.14345685665467,638.3355962180358 321.14345685665467,715.664403865725 297.1213214909658,715.664403865725 " class="fil0"/>
    <polygon stroke="null" fill="#009999" points="398.53461892193445,638.3355962180358 398.53461892193445,652.6280774807383 362.84302646104334,652.6280774807383 362.84302646104334,669.7763219076442 393.79970481943747,669.7763219076442 393.79970481943747,682.6625192690699 362.84302646104334,682.6625192690699 362.84302646104334,700.6638328200497 399.2639137934966,700.6638328200497 399.2639137934966,715.664403865725 339.724296904722,715.664403865725 339.724296904722,638.3355962180358 " class="fil0"/>
    <polygon stroke="null" fill="#009999" points="510.67914545117674,638.3355962180358 510.67914545117674,715.664403865725 488.2536566618437,715.664403865725 488.2536566618437,664.6616769402171 464.98561876357417,716.3728077967826 451.1398570736055,716.3728077967826 428.76175602536387,664.6616769402171 428.76175602536387,715.664403865725 412.54266514638584,715.664403865725 412.54266514638584,638.3355962180358 441.86664282385027,638.3355962180358 461.8829125752018,685.6739428092551 482.82558392015926,638.3355962180358 " class="fil0"/>
    <polygon stroke="null" fill="#009999" points="588.0366351181074,638.3355962180358 588.0366351181074,652.6280774807383 552.5401783120396,652.6280774807383 552.5401783120396,669.7763219076442 583.4966924148321,669.7763219076442 583.4966924148321,682.6625192690699 552.5401783120396,682.6625192690699 552.5401783120396,700.6638328200497 588.7659299896695,700.6638328200497 588.7659299896695,715.664403865725 529.2266416120983,715.664403865725 529.2266416120983,638.3355962180358 " class="fil0"/>
    <polygon stroke="null" fill="#009999" points="672.326614582722,638.3355962180358 672.326614582722,715.664403865725 646.8466286241164,715.664403865725 618.2530134796252,666.0676466934092 618.2530134796252,715.664403865725 602.0441064479528,715.664403865725 602.0441064479528,638.3355962180358 628.2668562374602,638.3355962180358 656.1203356406768,687.0800696364895 656.1203356406768,638.3355962180358 " class="fil0"/>
   </g>
  </g>
 </g>
</svg>