<svg width="1130" height="868.1" xmlns="http://www.w3.org/2000/svg" data-name="Layer 1">
 <defs>
  <linearGradient y2="-0.00008" x2="0.4999" y1="1.00006" x1="0.4999" id="be60935f-ac8f-4117-88a8-c3e19524f342">
   <stop stop-opacity="0.25" stop-color="gray" offset="0"/>
   <stop stop-opacity="0.12" stop-color="gray" offset="0.54"/>
   <stop stop-opacity="0.1" stop-color="gray" offset="1"/>
  </linearGradient>
 </defs>
 <title>dashboard</title>
 <g>
  <title>Layer 1</title>
  <path id="svg_1" opacity="0.1" fill="#6c63ff" d="m1108.14,197.66a231.21,231.21 0 0 0 -44.83,-60.38l-621.86,-5.18l512,-60.79a337.39,337.39 0 0 0 -103.88,-17.42c-49.29,-33.65 -112.64,-53.84 -181.74,-53.84c-62,0 -119.33,16.29 -166.07,43.93c-39.72,-17.3 -85,-27.11 -133.11,-27.11c-138.17,0 -253.3,80.9 -279.13,188.19l1018.62,-7.4z"/>
  <path id="svg_2" opacity="0.1" fill="#6c63ff" d="m1130,287.64a197,197 0 0 0 -19.38,-84.92l-1077.76,95.64a209.54,209.54 0 0 0 -25.25,53.91l333.75,42.06l-341.36,30.66c10.27,121.46 133.43,217.36 283.88,217.36c75.73,0 144.54,-24.3 195.53,-63.93c51.15,40.38 120.62,65.21 197.17,65.21c113.57,0 211.6,-54.67 257.25,-133.71c91.58,-24.58 162.72,-86.28 187.07,-163.47l-422.07,-55.34l431.17,0c0,-1.16 0,-2.31 0,-3.47z"/>
  <ellipse id="svg_3" opacity="0.1" fill="#6c63ff" ry="12.94" rx="289.98" cy="855.15" cx="499.98"/>
  <path id="svg_4" fill="#c8cad7" d="m672.09,832.39l0,7.82l-231.25,0l0,-6.35a76,76 0 0 0 5.23,-140.37l224.45,0a76,76 0 0 0 1.57,138.9z"/>
  <path id="svg_5" opacity="0.1" d="m670.52,693.49a76.11,76.11 0 0 0 -42,50.39l-140.44,0a76.13,76.13 0 0 0 -42,-50.39l224.44,0z"/>
  <path id="svg_6" fill="#c8cad7" d="m176,653.65l0,43.9c0,24.24 17.74,43.89 39.63,43.89l680.42,0c21.89,0 39.63,-19.65 39.63,-43.89l0,-43.9l-759.68,0z"/>
  <path id="svg_7" opacity="0.1" d="m672.09,832.39l0,7.82l-231.25,0l0,-6.35a76,76 0 0 0 17.83,-9.5l199.24,0a76.39,76.39 0 0 0 14.18,8.03z"/>
  <rect id="svg_8" fill="#c8cad7" ry="9.5" rx="9.5" height="23.17" width="384.09" y="826.8" x="364.42"/>
  <path id="svg_9" fill="#474157" d="m935.68,172.62a39.62,39.62 0 0 0 -39.63,-39.57l-680.39,0a39.62,39.62 0 0 0 -39.66,39.57l0,489.57l759.68,0l0,-489.57z"/>
  <path id="svg_10" fill="#4c4c78" d="m915,190.3l0,420.67a19.5,19.5 0 0 1 -19.51,19.51l-679.22,0a19.5,19.5 0 0 1 -19.51,-19.51l0,-420.67a19.51,19.51 0 0 1 19.51,-19.51l679.17,0a19.51,19.51 0 0 1 19.56,19.51z"/>
  <circle id="svg_11" fill="#fff" r="9.15" cy="151.89" cx="555.85"/>
  <circle id="svg_12" fill="#fff" r="22.56" cy="699.38" cx="555.85"/>
  <path id="svg_13" fill="#fff" d="m348.53,180.55l0,449.93l-132.26,0a19.5,19.5 0 0 1 -19.51,-19.51l0,-420.67l0.71,-2.65l1.9,-7.1l149.16,0z"/>
  <polygon id="svg_14" fill="#4c4c78" points="365.5 187.65 365.5 228.15 196.76 228.15 196.76 190.3 197.47 187.65 365.5 187.65"/>
  <path id="svg_15" fill="#c8cad7" d="m915,190.3l-718.24,0a19.5,19.5 0 0 1 19.51,-19.5l679.17,0a19.5,19.5 0 0 1 19.56,19.5z"/>
  <circle id="svg_16" fill="#ededf4" r="4.88" cy="180.55" cx="216.27"/>
  <circle id="svg_17" fill="#ededf4" r="4.88" cy="180.55" cx="230.9"/>
  <circle id="svg_18" fill="#ededf4" r="4.88" cy="180.55" cx="245.53"/>
  <rect id="svg_19" fill="#6c63ff" height="9.33" width="101.33" y="205.48" x="221.98"/>
  <rect id="svg_20" opacity="0.5" fill="#6c63ff" height="9.33" width="101.33" y="250.98" x="221.98"/>
  <rect id="svg_21" opacity="0.5" fill="#6c63ff" height="9.33" width="101.33" y="283.15" x="221.98"/>
  <rect id="svg_22" opacity="0.5" fill="#6c63ff" height="9.33" width="101.33" y="315.32" x="221.98"/>
  <rect id="svg_23" opacity="0.5" fill="#6c63ff" height="9.33" width="101.33" y="347.48" x="221.98"/>
  <rect id="svg_24" opacity="0.5" fill="#6c63ff" height="9.33" width="101.33" y="379.65" x="221.98"/>
  <rect id="svg_25" opacity="0.5" fill="#6c63ff" height="9.33" width="101.33" y="411.82" x="221.98"/>
  <rect id="svg_26" opacity="0.5" fill="#6c63ff" height="9.33" width="101.33" y="443.98" x="221.98"/>
  <rect id="svg_27" opacity="0.5" fill="#dce0ed" height="1.5" width="449.01" y="239.79" x="431.49"/>
  <rect id="svg_28" opacity="0.5" fill="#dce0ed" height="1.5" width="449.01" y="274.62" x="431.49"/>
  <rect id="svg_29" opacity="0.5" fill="#dce0ed" height="1.5" width="449.01" y="309.46" x="431.49"/>
  <rect id="svg_30" opacity="0.5" fill="#dce0ed" height="1.5" width="449.01" y="344.29" x="431.49"/>
  <rect id="svg_31" opacity="0.5" fill="#dce0ed" height="1.5" width="449.01" y="379.12" x="431.49"/>
  <polygon id="svg_32" opacity="0.5" fill="#6c63ff" points="880.51 380.61 430.94 380.61 430.94 312.11 472.17 332.43 514.84 338.21 552.28 326.92 597.45 291.89 620.17 278.77 636.78 275.57 652.67 276.42 678.81 289.33 714.33 311.96 742.21 315.55 764.32 307.93 811.17 269.55 835.09 261.02 860.12 264.89 880.51 276.66 880.51 380.61"/>
  <path id="svg_33" fill="#6c63ff" d="m509.3,338.23c-40.48,0 -77.9,-24.76 -78.36,-25.08l1.11,-1.66c0.58,0.39 58.16,38.49 107.09,19.4c17.86,-6.95 30.54,-17.78 42.86,-28.24c12.83,-10.93 24.95,-21.26 41.46,-25.74c19,-5.13 39.65,-0.48 55.38,12.44c13.44,11.05 40.22,28.8 68.51,23.49c14.42,-2.7 26.58,-13.24 39.45,-24.39c24.64,-21.4 50.2,-43.49 94.29,-11.77l-1.17,1.62c-42.85,-30.79 -67.76,-9.21 -91.84,11.66c-13.08,11.34 -25.44,22 -40.39,24.85c-29.1,5.45 -56.44,-12.64 -70.15,-23.91c-15.23,-12.52 -35.26,-17 -53.58,-12.05c-16.09,4.36 -28,14.54 -40.69,25.32c-12.41,10.57 -25.25,21.51 -43.4,28.59a83.88,83.88 0 0 1 -30.57,5.47z"/>
  <circle id="svg_34" fill="#6c63ff" r="11.13" cy="275.37" cx="647.55"/>
  <path id="svg_35" fill="url(#be60935f-ac8f-4117-88a8-c3e19524f342)" d="m368.62,517.24c-15.21,-8.76 -21,-10.93 -21,-10.94l-0.31,-0.22a12.66,12.66 0 0 1 -3.84,-4.85c0,-0.35 0,-0.7 0,-1l0,0.1c0.25,-4.64 3.54,-8.85 6.67,-12.53q4,-4.71 8,-9.41a9.19,9.19 0 0 0 2.06,-3.34a7.49,7.49 0 0 0 0.22,-2c0,-0.28 0,-0.55 0,-0.82c0,-2.34 -0.11,-4.68 -0.19,-7c-0.08,-2.05 -0.6,-4.62 -2.65,-5c-1.06,-0.22 -2.46,0.16 -3,-0.75a1.68,1.68 0 0 1 -0.14,-1.21s0,0.06 0,0.09a0.52,0.52 0 0 1 0,-0.11a27.65,27.65 0 0 0 0.76,-4.81a6.9,6.9 0 0 0 -0.33,-2.43c-1.19,-3.39 -5.26,-4.78 -8.86,-5.42s-7.64,-1.19 -9.9,-4a32.74,32.74 0 0 0 -2,-2.71a7.88,7.88 0 0 0 -3.69,-1.82a20.72,20.72 0 0 0 -13.38,1.17c-1.74,0.78 -3.49,1.82 -5.4,1.71s-3.68,-1.5 -5.64,-1.83c-3.16,-0.54 -6.19,1.79 -7.75,4.54a11,11 0 0 0 -1.43,5.35c0,0.1 0,0.21 0,0.31l0,0a7.86,7.86 0 0 0 2.06,5.46c1.36,1.42 3.39,2.39 4,4.25c0.23,0.76 0.18,1.58 0.38,2.34c0,0.1 0.06,0.19 0.09,0.29l-0.11,0.13a23.77,23.77 0 0 0 -5,14.62a24.26,24.26 0 0 0 17,23c0,0.23 0,0.47 0,0.72a10.34,10.34 0 0 1 -3.3,8.05l-21.58,8.66s-13,-1.54 -17.68,17.45a32.16,32.16 0 0 0 -0.8,9.63c0.17,2.87 -0.23,7.91 -3.56,14.43c-5.33,10.44 -4.12,34.39 6.78,36.76c10.29,2.24 14.32,1.31 14.74,1.2l0,0.42c-0.17,4.5 -1.8,43.26 -7.73,48c-1.65,1.29 -1.34,2.17 0,2.76c0,0 0,0.25 0,0.7c-0.18,2.84 -1.1,13.63 -5.07,19.78c-4.56,7.09 -4.04,48.09 -4.04,48.09l-3.14,24.19s1.93,14.94 0,17.55c-1.73,2.33 -4,57.61 -4.52,69.59l-0.2,0a5.83,5.83 0 0 0 -4.66,2.84c-2.58,4.14 -11.48,11.77 -11.48,11.77c-1.93,2.75 -9.09,5.38 -12.87,6.62a8.25,8.25 0 0 0 -1.46,0.63a7.68,7.68 0 0 0 -3.25,3.42a3.66,3.66 0 0 0 -0.34,2.85c1,2.37 21.07,4 26.15,1.66c4,-1.86 19.84,-4.32 26.42,-5.28a5.42,5.42 0 0 0 4.7,-4.7a3.1,3.1 0 0 0 -0.6,-2.35l0,0c-1.26,-1.56 -1.91,-5.82 -2.2,-8.6a5.85,5.85 0 0 0 1.48,-0.88a63.09,63.09 0 0 1 3.63,-25.38c4.84,-12.8 6.3,-36.52 5.09,-51.94c0,0 14.77,-63.57 26.4,-69.5l0,0c0.18,0.22 5.82,7.46 6.54,29.88c0.72,22.77 8.95,37.71 8.95,37.71s-3.63,38.66 0,53.13l-4.77,22.79a7.39,7.39 0 0 1 -0.57,-0.52s0.14,0.64 0.34,1.65l-0.1,0.48l0.2,0.05c0.54,2.85 1.34,7.82 1,10.74c-0.19,1.67 -0.65,3.94 -1,6.18c-0.5,3.51 -0.64,6.92 1.21,7.66c3,1.22 20.83,2.89 23.86,-1a5.61,5.61 0 0 0 0.88,-5.86a6,6 0 0 0 -0.88,-1.49s-4.73,-7.73 -3.39,-13.18a4,4 0 0 0 -0.57,-3.12a161.08,161.08 0 0 1 4.15,-25.59c3,-11.41 9.42,-36.43 4.72,-52.89l0,0c-0.18,-0.64 -0.38,-1.28 -0.6,-1.9a71,71 0 0 1 -2.67,-27.75a56.41,56.41 0 0 1 0,-24.19c2.88,-13.27 4.91,-26.27 4.91,-26.27s1.6,-17.55 0.2,-28.31l-0.09,-0.69l0.76,-0.17s-4.11,-18.26 -5.57,-29.88c-0.34,-2.75 -0.79,-6.22 -1.28,-9.93a26.22,26.22 0 0 0 3.95,-1c13.08,-4.51 17.19,-45.31 17.19,-45.31l0,-12.94s4.36,-19.77 -10.9,-28.58zm-97.43,315l-0.64,-0.34l0,0l0.64,0.34z"/>
  <path id="svg_36" fill="#65617d" d="m360.73,752.65c5.67,16.31 -1,42.78 -4,54.6a165.7,165.7 0 0 0 -4,26a55,55 0 0 1 -20.8,-0.48l5,-24.34c-3.54,-14.42 0,-52.95 0,-52.95s-8,-14.9 -8.74,-37.59c-0.7,-22.33 -6.2,-29.55 -6.38,-29.78l0,0c-11.43,5.94 -25.81,69.27 -25.81,69.27c1.18,15.36 -0.24,39 -5,51.77a64.05,64.05 0 0 0 -3.55,25.29c-1.65,1.39 -3.95,1.63 -6.43,1.23c-6.75,-1.09 -14.84,-6.91 -14.84,-6.91s2.6,-69 4.49,-71.62s0,-17.49 0,-17.49l3.07,-24.11s-0.47,-40.89 4,-48c3.88,-6.13 4.77,-16.89 4.95,-19.71c0,-0.45 0,-0.7 0,-0.7l6.84,-8.19s66.19,-5 71.15,0c1.22,1.22 2,4 2.42,7.48c1.36,10.72 -0.2,28.21 -0.2,28.21s-2,13 -4.82,26.23a57.4,57.4 0 0 0 0,24.11a72,72 0 0 0 2.65,27.68z"/>
  <path id="svg_37" fill="#a27772" d="m356.59,856.3c-2.95,3.9 -20.32,2.25 -23.28,1c-1.81,-0.75 -1.67,-4.14 -1.18,-7.64c0.31,-2.23 0.76,-4.5 0.94,-6.15c0.48,-4.26 -1.41,-12.89 -1.41,-12.89s3.9,4.14 4.84,0a4.5,4.5 0 0 1 3.37,-3.2a8.84,8.84 0 0 1 6.14,0.38c3.07,1.33 8.19,4.17 7.27,8c-1.3,5.43 3.31,13.13 3.31,13.13a5.93,5.93 0 0 1 0.86,1.49a5.67,5.67 0 0 1 -0.86,5.88z"/>
  <path id="svg_38" opacity="0.1" d="m356.59,856.3c-2.95,3.9 -20.32,2.25 -23.28,1c-1.81,-0.75 -1.67,-4.14 -1.18,-7.64c1.86,0.87 5,1.6 10.32,1.11a28.9,28.9 0 0 1 3.72,-0.12a85.06,85.06 0 0 0 11.28,-0.22a5.67,5.67 0 0 1 -0.86,5.87z"/>
  <path id="svg_39" opacity="0.1" d="m296,757.38c1.18,15.36 -0.24,39 -5,51.77a64.05,64.05 0 0 0 -3.55,25.29c-1.65,1.39 -3.95,1.63 -6.43,1.23c1.43,-10 7.5,-52.93 11.4,-86.86c4.43,-38.65 25.17,-65.24 25.17,-65.24l4.14,4.55c-11.35,5.93 -25.73,69.26 -25.73,69.26z"/>
  <path id="svg_40" fill="#fbbebe" d="m349.5,508.95l-2.89,14.18l-14.13,23.76l-17.43,-7.45s-23.7,-24.82 -8.81,-28.36a13.13,13.13 0 0 0 4.95,-2.2c2.92,-2.21 3.84,-5.41 3.86,-8.55a26.29,26.29 0 0 0 -2.42,-10.17l30.49,-9.57a48.52,48.52 0 0 0 -2.19,12.35c-0.23,8.3 2.85,12.4 5.38,14.35a9.06,9.06 0 0 0 3.19,1.66z"/>
  <path id="svg_41" opacity="0.1" d="m343.12,480.59a48.52,48.52 0 0 0 -2.19,12.35a24.1,24.1 0 0 1 -25.88,7.39a26.29,26.29 0 0 0 -2.42,-10.17l30.49,-9.57z"/>
  <path id="svg_42" fill="#fbbebe" d="m346.61,476.69a24.11,24.11 0 1 1 -24.11,-24.11a24.05,24.05 0 0 1 24.11,24.11z"/>
  <path id="svg_43" opacity="0.1" d="m349.5,508.95l-2.89,14.18l-14.13,23.76l-17.43,-7.45s-23.7,-24.82 -8.81,-28.36a13.13,13.13 0 0 0 4.95,-2.2c-2.69,7.39 8.41,22.76 8.41,22.76c1.29,1.9 4.26,0.71 4.26,0.71c7.14,-1.08 20.31,-21.64 22.45,-25.06a9.06,9.06 0 0 0 3.19,1.66z"/>
  <path id="svg_44" opacity="0.1" d="m363.15,646.44c-4.2,1 -27.42,6.09 -36.22,4.81c-9.69,-1.42 -28.54,-2.36 -28.54,-2.36s-12,0.64 -15.68,-1c0,-0.45 0,-0.7 0,-0.7l6.84,-8.19s66.19,-5 71.15,0c1.3,1.18 2,3.95 2.45,7.44z"/>
  <path id="svg_45" fill="#ff748e" d="m319.6,532.35s-12.47,-17.27 -7.77,-24l-21.07,8.64s-12.68,-1.54 -17.25,17.38a33,33 0 0 0 -0.79,9.61c0.17,2.85 -0.22,7.87 -3.47,14.37c-5.2,10.4 -4,34.28 6.62,36.64s14.42,1.18 14.42,1.18s-1.42,43.26 -7.56,48.22s15.67,3.78 15.67,3.78s18.84,1 28.53,2.37s36.87,-5 36.87,-5s-4,-18.2 -5.44,-29.78s-4.72,-36.24 -4.72,-36.24l24.11,-32.66s4.25,-19.74 -10.64,-28.48s-20.5,-10.9 -20.5,-10.9s-15,24.37 -22.76,25.55c0,0.02 -2.96,1.22 -4.25,-0.68z"/>
  <path id="svg_46" opacity="0.1" d="m291.94,539.21s-0.23,7.8 1.19,10.87s6.61,20.09 6.61,20.09l-11.81,0s6.38,-6.85 5.91,-10.16s-1.9,-20.8 -1.9,-20.8z"/>
  <path id="svg_47" fill="#fbbebe" d="m326.93,598.05s-26.1,-6.38 -28.53,-11.81s-9.14,-17.61 -9.14,-17.61l2.75,-3.71l12.7,10s15.13,12 22.22,13.24s0,9.89 0,9.89z"/>
  <path id="svg_48" opacity="0.05" d="m326.93,598.05s-26.1,-6.38 -28.53,-11.81s-9.14,-17.61 -9.14,-17.61l2.75,-3.71l12.7,10s15.13,12 22.22,13.24s0,9.89 0,9.89z"/>
  <path id="svg_49" fill="#fbbebe" d="m349.5,567.34l0,14.16l-2.28,0a66.24,66.24 0 0 0 -32.14,8.32l-4.26,2.36l-1.15,0.64l-7.33,-16.5l6.86,-6.15l0.35,0c1.68,0.16 8.93,0.76 12,-0.27s6.55,-4.14 15.14,-1.94c4.24,1.08 7.85,5.83 12,4.35l0.81,-4.97z"/>
  <path id="svg_50" opacity="0.1" d="m372.31,541.57l4.73,5.32l0,12.88s-4,40.66 -16.78,45.15s-35.55,-2.6 -35.55,-2.6s-5.89,-15.6 -3.14,-16.55s24.34,-6.64 24.34,-6.64s-0.31,-23.85 4.42,-30.94c0,0 -3.07,-22.22 7.56,-22.69s14.42,16.07 14.42,16.07z"/>
  <path id="svg_51" fill="#ff748e" d="m373,541.57l4.73,5.32l0,12.88s-4,40.66 -16.79,45.15s-35.54,-2.6 -35.54,-2.6s-5.89,-15.6 -3.14,-16.55s24.33,-6.64 24.33,-6.64s-0.3,-23.85 4.43,-30.94c0,0 -3.08,-22.22 7.56,-22.69s14.42,16.07 14.42,16.07z"/>
  <path id="svg_52" opacity="0.1" d="m340,486.93a9.31,9.31 0 0 0 -0.54,-4.6a3.53,3.53 0 0 0 -3.74,-2.16c-2,0.47 -2.9,3.1 -4.88,3.73c-1.67,0.53 -3.5,-0.65 -4.3,-2.21a11.3,11.3 0 0 1 -0.82,-5.14c0,-2 0,-3.95 0,-5.93c0,-2.15 -0.07,-4.47 -1.4,-6.16c-1.65,-2.1 -5.52,-3 -8.1,-2.93a6.87,6.87 0 0 0 -4.63,1.86a6,6 0 0 1 -4.87,1.74a4.21,4.21 0 0 1 -3.39,-2.94a0.24,0.24 0 0 1 0,-0.08a24.11,24.11 0 1 1 35.86,32a66.79,66.79 0 0 0 0.81,-7.18z"/>
  <path id="svg_53" fill="#7c5c5c" d="m306.71,464.42a4.24,4.24 0 0 1 -3.4,-2.94c-0.19,-0.76 -0.14,-1.58 -0.37,-2.33c-0.55,-1.86 -2.53,-2.83 -3.86,-4.24c-2.66,-2.82 -2.49,-7.47 -0.61,-10.87c1.53,-2.74 4.48,-5.05 7.57,-4.52c1.91,0.34 3.56,1.7 5.5,1.82s3.57,-0.92 5.27,-1.7a19.84,19.84 0 0 1 13.06,-1.16a7.56,7.56 0 0 1 3.6,1.81a30.59,30.59 0 0 1 1.92,2.7c2.2,2.81 6.15,3.36 9.66,4s7.49,2 8.64,5.41c0.77,2.24 0,4.67 -0.41,7a2,2 0 0 0 0.09,1.45c0.55,0.91 1.92,0.53 3,0.74c2,0.42 2.5,3 2.57,5q0.14,3.48 0.19,7a9,9 0 0 1 -0.2,2.59a9.17,9.17 0 0 1 -2,3.25l-7.81,9.38c-3.46,4.16 -7.13,9 -6.44,14.37c-1.64,0.73 -3.58,-0.68 -4.12,-2.4s-0.11,-3.56 0.26,-5.32a65.36,65.36 0 0 0 1.23,-9.23a9.34,9.34 0 0 0 -0.54,-4.61a3.54,3.54 0 0 0 -3.75,-2.16c-2,0.47 -2.89,3.1 -4.87,3.73c-1.67,0.54 -3.5,-0.65 -4.3,-2.21a11.43,11.43 0 0 1 -0.82,-5.14l0,-5.93c0,-2.15 -0.07,-4.47 -1.4,-6.16c-1.64,-2.1 -5.52,-3 -8.1,-2.93a6.87,6.87 0 0 0 -4.63,1.86a6,6 0 0 1 -4.93,1.74z"/>
  <path id="svg_54" opacity="0.1" d="m312.15,538.62l7.41,30.4s5.83,-0.03 -7.41,-30.4z"/>
  <path id="svg_55" opacity="0.1" d="m337.45,533.53s-9.7,15.88 -5.91,32.29l1.8,0.13s-3.22,-7.6 4.11,-32.42z"/>
  <path id="svg_56" opacity="0.1" d="m343.59,623.36s11.9,-3.94 12.77,5.2c0,0 -2.25,-6.27 -12.77,-5.2z"/>
  <path id="svg_57" opacity="0.1" d="m309.2,570.88s-2.36,16.55 1.89,23.17a51.94,51.94 0 0 1 -20.8,2.83l-1.42,-26l20.33,0z"/>
  <path id="svg_58" opacity="0.1" d="m310.82,592.18l-1.15,0.64l-7.33,-16.5l6.86,-6.15l0.35,0l0,0c-0.11,0.8 -2.02,15.01 1.27,22.01z"/>
  <path id="svg_59" fill="#ff748e" d="m309.2,570.17s-2.36,16.55 1.89,23.17a51.94,51.94 0 0 1 -20.8,2.83l-8.27,-26l27.18,0z"/>
  <path id="svg_60" fill="#a27772" d="m288.75,846.24a5.34,5.34 0 0 1 -4.59,4.68c-6.41,1 -21.88,3.4 -25.78,5.26c-5,2.37 -24.58,0.71 -25.53,-1.65a3.75,3.75 0 0 1 0.34,-2.85a7.79,7.79 0 0 1 4.59,-4c3.7,-1.24 10.68,-3.85 12.56,-6.59c0,0 8.7,-7.62 11.18,-11.73a5.66,5.66 0 0 1 4.55,-2.83c2.07,-0.1 4.37,0.95 5.32,5.48c0,0 11.34,6.47 14.41,0.8c0,0 0.47,8.71 2.35,11.1l0,0a3.13,3.13 0 0 1 0.6,2.33z"/>
  <path id="svg_61" opacity="0.1" d="m288.75,846.24a5.34,5.34 0 0 1 -4.59,4.68c-6.41,1 -21.88,3.4 -25.78,5.26c-5,2.37 -24.58,0.71 -25.53,-1.65a3.75,3.75 0 0 1 0.34,-2.85a7.57,7.57 0 0 1 3.17,-3.4c3.2,2.12 10.3,4.2 25.92,1.76c14.9,-2.33 22.27,-4.61 25.87,-6.16l0,0a3.13,3.13 0 0 1 0.6,2.36z"/>
  <g id="svg_62" opacity="0.1">
   <path id="svg_63" d="m353.25,459.72a0.5,0.5 0 0 0 0,-0.12a21.55,21.55 0 0 0 0.73,-5.36a33.89,33.89 0 0 1 -0.73,4.3a2.62,2.62 0 0 0 0,1.18z"/>
   <path id="svg_64" d="m339.46,481.84a7,7 0 0 1 0.58,2.7a8.11,8.11 0 0 0 -0.58,-3.76a3.55,3.55 0 0 0 -3.75,-2.17c-2,0.47 -2.89,3.11 -4.87,3.74c-1.67,0.53 -3.5,-0.66 -4.3,-2.22a11.17,11.17 0 0 1 -0.82,-5.14c0,-2 0,-3.95 0,-5.92c0,-2.15 -0.07,-4.47 -1.4,-6.16c-1.65,-2.11 -5.52,-3 -8.11,-2.94a6.83,6.83 0 0 0 -4.62,1.87a6,6 0 0 1 -4.87,1.73a4.19,4.19 0 0 1 -3.4,-2.94c-0.2,-0.76 -0.14,-1.57 -0.37,-2.33c-0.55,-1.86 -2.53,-2.82 -3.86,-4.23a7.78,7.78 0 0 1 -2,-5a8.09,8.09 0 0 0 2,6.06c1.33,1.41 3.31,2.38 3.86,4.24c0.23,0.75 0.17,1.57 0.37,2.33a4.23,4.23 0 0 0 3.4,2.94a6,6 0 0 0 4.87,-1.74a6.93,6.93 0 0 1 4.61,-1.85c2.59,-0.08 6.46,0.84 8.11,2.94c1.33,1.69 1.39,4 1.4,6.16c0,2 0,3.95 0,5.92a11.19,11.19 0 0 0 0.82,5.15c0.8,1.56 2.63,2.74 4.3,2.21c2,-0.63 2.85,-3.26 4.87,-3.74a3.57,3.57 0 0 1 3.76,2.15z"/>
   <path id="svg_65" d="m358.89,475.33a9.3,9.3 0 0 1 -2,3.26q-3.92,4.68 -7.81,9.37c-3.28,3.95 -6.76,8.52 -6.51,13.56c0.24,-4.62 3.46,-8.82 6.51,-12.49l7.81,-9.38a9.26,9.26 0 0 0 2,-3.25a9,9 0 0 0 0.2,-2.6a6.48,6.48 0 0 1 -0.2,1.53z"/>
   <path id="svg_66" d="m338.51,499.94a5.58,5.58 0 0 1 -0.24,-1.27a6.33,6.33 0 0 0 0.24,2.33c0.53,1.72 2.48,3.13 4.12,2.4c0,-0.35 -0.07,-0.7 -0.08,-1c-1.62,0.65 -3.55,-0.78 -4.04,-2.46z"/>
  </g>
  <path id="svg_67" opacity="0.1" d="m260,831.47s2.47,4.34 11.43,0.51"/>
  <path id="svg_68" opacity="0.1" d="m335.65,832.51s7.73,9.09 17.46,3"/>
  <path id="svg_69" opacity="0.1" d="m358.13,724.99s-5.46,3.41 -5.64,5.36s2.82,-1.42 2.82,-1.42l2.82,-3.94z"/>
  <path id="svg_70" opacity="0.1" d="m360.28,751.13a11.33,11.33 0 0 1 -6.72,2.62c-4.08,0.18 -3.74,5.5 -1.07,3.9s7.79,-6.52 7.79,-6.52z"/>
  <path id="svg_71" opacity="0.1" d="m361.32,754.54s-2.62,12.86 -4.75,10.38"/>
  <g id="svg_72" opacity="0.5">
   <rect id="svg_73" fill="#dce0ed" height="14" width="66" y="458.65" x="471.17"/>
   <rect id="svg_74" fill="#dce0ed" height="14" width="66" y="458.65" x="622.72"/>
   <rect id="svg_75" fill="#dce0ed" height="14" width="66" y="458.65" x="774.27"/>
  </g>
  <ellipse id="svg_76" opacity="0.1" fill="#6c63ff" ry="4.55" rx="26.93" cy="801.29" cx="952.73"/>
  <ellipse id="svg_77" opacity="0.1" fill="#6c63ff" ry="4.55" rx="26.93" cy="858.74" cx="115.22"/>
  <ellipse id="svg_78" fill="#6c63ff" ry="6.8" rx="40.21" cy="850.05" cx="893.79"/>
  <path id="svg_79" fill="#6c63ff" d="m910.41,838.94a11.64,11.64 0 0 0 3.83,-5.79c0.5,-2.3 -0.48,-5.05 -2.67,-5.89c-2.46,-0.94 -5.09,0.76 -7.09,2.49s-4.27,3.68 -6.88,3.32a10.5,10.5 0 0 0 3.24,-9.81a4.08,4.08 0 0 0 -0.9,-2c-1.37,-1.46 -3.84,-0.84 -5.48,0.31c-5.2,3.66 -6.65,10.72 -6.68,17.08c-0.52,-2.29 -0.08,-4.68 -0.09,-7s-0.66,-5 -2.64,-6.23a8,8 0 0 0 -4,-0.94c-2.34,-0.09 -4.95,0.14 -6.54,1.85c-2,2.13 -1.47,5.69 0.25,8s4.36,3.8 6.77,5.42a15.13,15.13 0 0 1 4.84,4.61a4.81,4.81 0 0 1 0.35,0.83l14.66,0a41.11,41.11 0 0 0 9.03,-6.25z"/>
  <path id="svg_80" fill="#6c63ff" d="m116.45,791.24s5.5,7.19 -2.53,18s-14.65,20 -12,26.77c0,0 12.12,-20.15 22,-20.43s3.38,-12.22 -7.47,-24.34z"/>
  <path id="svg_81" opacity="0.1" d="m116.45,791.24a9,9 0 0 1 1.13,2.26c9.62,11.3 14.74,21.85 5.49,22.11c-8.61,0.25 -18.94,15.65 -21.42,19.54a9.24,9.24 0 0 0 0.29,0.89s12.12,-20.15 22,-20.43s3.36,-12.25 -7.49,-24.37z"/>
  <path id="svg_82" fill="#ffd037" d="m126.66,800.4c0,2.53 -0.28,4.58 -0.63,4.58s-0.63,-2 -0.63,-4.58s0.35,-1.34 0.7,-1.34s0.56,-1.19 0.56,1.34z"/>
  <path id="svg_83" fill="#ffd037" d="m130.17,803.42c-2.22,1.21 -4.16,1.94 -4.32,1.63s1.49,-1.54 3.71,-2.75s1.35,-0.33 1.51,0s1.32,-0.09 -0.9,1.12z"/>
  <path id="svg_84" fill="#6c63ff" d="m87.44,791.24s-5.5,7.19 2.53,18s14.65,20 12,26.77c0,0 -12.11,-20.15 -22,-20.43s-3.38,-12.22 7.47,-24.34z"/>
  <path id="svg_85" opacity="0.1" d="m87.44,791.24a9,9 0 0 0 -1.13,2.26c-9.62,11.3 -14.74,21.85 -5.49,22.11c8.61,0.25 18.94,15.65 21.42,19.54a7.16,7.16 0 0 1 -0.3,0.89s-12.11,-20.15 -22,-20.43s-3.35,-12.25 7.5,-24.37z"/>
  <path id="svg_86" fill="#ffd037" d="m77.22,800.4c0,2.53 0.29,4.58 0.64,4.58s0.63,-2 0.63,-4.58s-0.35,-1.34 -0.7,-1.34s-0.57,-1.19 -0.57,1.34z"/>
  <path id="svg_87" fill="#ffd037" d="m73.72,803.42c2.22,1.21 4.15,1.94 4.32,1.63s-1.49,-1.54 -3.71,-2.75s-1.35,-0.33 -1.52,0s-1.31,-0.09 0.91,1.12z"/>
  <path id="svg_88" fill="#a8a8a8" d="m79,835.1s15.36,-0.48 20,-3.77s23.63,-7.24 24.78,-1.95s23.08,26.29 5.74,26.43s-40.29,-2.7 -44.91,-5.51s-5.61,-15.2 -5.61,-15.2z"/>
  <path id="svg_89" opacity="0.2" d="m129.79,853.97c-17.34,0.14 -40.3,-2.7 -44.92,-5.51c-3.51,-2.15 -4.92,-9.84 -5.38,-13.38l-0.52,0s1,12.38 5.6,15.2s27.57,5.65 44.91,5.51c5,0 6.73,-1.82 6.64,-4.46c-0.7,1.62 -2.61,2.61 -6.33,2.64z"/>
  <path id="svg_90" fill="#6c63ff" d="m466.5,556.42c0,-20.44 16.63,-36.14 37.08,-36.14l0.29,0l0,-9.3l-0.29,0c-25.58,0 -46.38,19.87 -46.38,45.44a46.26,46.26 0 0 0 15.89,34.9l6.59,-6.59a37,37 0 0 1 -13.18,-28.31z"/>
  <path id="svg_91" opacity="0.5" fill="#6c63ff" d="m504.8,510.99l0,9.3a37.07,37.07 0 1 1 -24.19,65.37l-6.61,6.59a46.36,46.36 0 1 0 30.78,-81.26l0.02,0z"/>
  <path id="svg_92" opacity="0.5" fill="#6c63ff" d="m808.8,519.81c20.44,0 36.14,16.63 36.14,37.08c0,0.09 0,0.19 0,0.29l9.3,0c0,-0.1 0,-0.2 0,-0.29c0,-25.57 -19.87,-46.38 -45.44,-46.38a46.24,46.24 0 0 0 -34.9,15.89l6.59,6.59a37,37 0 0 1 28.31,-13.18z"/>
  <path id="svg_93" fill="#6c63ff" d="m854.23,558.11l-9.3,0a37.07,37.07 0 1 1 -65.37,-24.19l-6.56,-6.59a46.36,46.36 0 1 0 81.26,30.78l-0.03,0z"/>
  <path id="svg_94" opacity="0.5" fill="#6c63ff" d="m674,513.71l-1.85,9.26c13.61,5.49 22.31,18.83 22.31,34.38a37.07,37.07 0 1 1 -51.93,-33.95l-4.12,-8.35a46.36,46.36 0 1 0 65.39,42.3c0,-20.07 -11.88,-37.19 -29.8,-43.64z"/>
  <path id="svg_95" fill="#6c63ff" d="m658.59,519.74a32.38,32.38 0 0 1 12.91,2.68l1.85,-9.25a40.9,40.9 0 0 0 -14.76,-2.73a46.17,46.17 0 0 0 -19,4.09l4.16,8.33a36.69,36.69 0 0 1 14.84,-3.12z"/>
  <g stroke="null">
   <g stroke="null" transform="matrix(0.882061 0 0 -0.839361 57.4021 437.831)">
    <path stroke="null" fill="#f56600" transform="matrix(0.8 0 0 -0.8 206.43 491.97)" d="m851.52022,222.55348c-0.06,0.14027 -0.7,0.34948 -0.75,0.49808c-0.25,0.694 0.17,1.2474 0.25,1.7461c-0.27,0.054 -0.4,0.4585 -0.5,0.498c-0.9,0.3044 -2.06,-0.2337 -2.99,0c-0.5,0.1164 -1.21,1.139 -1.74,1.2481c-1.16,0.2264 -1.78,-0.5312 -2.75,0.248c-0.47,0.3584 -1.48,3.5307 -1.74,4.2402c-0.27,-0.1475 -0.47,0.1092 -0.75,0c-0.28,-0.109 -0.65,-0.8577 -1,-0.998c-2.28,-0.9267 -2.19,0.9513 -3.24,1.7461c-0.38,0.2803 -1.04,0.2803 -1.5,0.4983c0,0 -0.18,-0.7407 -0.25,-0.9983c0.3,-0.2722 1.13,-0.5754 1.25,-0.9961c0.07,-0.2805 -0.12,-0.7414 0,-0.9981c-0.22,-0.1714 -0.44,-0.1479 -0.5,-0.498c-0.46,0 -1.05,0.1017 -1.49,0c-0.25,0.3429 -0.91,0.8409 -1,1.2461c-0.05,0.1714 0.11,0.5766 0,0.748c-0.19,0.265 -1.16,0.4676 -1.25,0.7481c-0.37,1.1293 0.25,1.9863 0.5,2.7423l-0.5,0c-0.36,0.117 -1.1,1.427 -1,1.996c0.04,0.203 0.67,0.599 0.75,0.748c0.09,0.171 0.12,0.88 0.25,0.996c0.21,0.179 0.58,0.024 0.75,0.25c-0.44,0.942 -0.4,1.357 -0.75,2.494c-0.13,-0.086 -0.61,0 -0.75,0c-0.65,-1.387 -0.81,-0.873 -0.49,-2.992c-0.25,-0.117 -0.78,-0.694 -1,-0.748c-0.75,-0.203 -1.77,0.211 -2.5,0c-0.24,-0.078 -0.39,-0.905 -0.74,-0.998c-0.28,-0.078 -1.2,0.196 -1,0.25c-0.3,0.53 -0.67,1.043 -1,1.744c-0.04,0.078 -0.47,0.179 -0.5,0.25c-0.16,0.405 0.05,1.207 -0.25,1.496c-0.46,0.421 -1.26,0.109 -1.74,0.498c-0.36,0.272 -1.04,3.889 -0.5,4.24c0.77,0.499 1.22,0.024 1.75,-0.25c0.39,-0.21 0.17,-0.483 0.24,-0.998c0.17,0.054 0.75,0.25 0.75,0.25c-0.14,0.748 -0.19,0.898 -0.25,1.747c-0.27,0.054 -0.39,0.458 -0.5,0.498c-0.75,0.256 -1.96,-0.196 -2.74,0l-0.25,0.498c-0.4,0.256 -0.76,0.016 -1.24,0.25c0.27,-1.333 0.4,-2.105 0.74,-3.243c-0.46,-0.195 -0.12,-0.022 -0.25,-0.498c-1.196,-0.093 -2.248,-0.483 -2.988,0.498c-0.974,1.271 -0.615,2.556 0,3.741c-0.499,0.599 -1.363,1.301 -1.496,2.244c-0.047,0.296 0.148,0.983 0,1.248c-0.054,0.078 -1.128,0.217 -1.245,0.248c-0.078,0.483 -0.063,1.107 -0.251,1.746c0.046,0.007 0.897,0.162 0.998,0.248c0.273,0.226 0.241,1.046 0.498,1.248c-0.545,-0.016 -3.335,0.241 -3.989,0.748c-0.624,0.468 0.328,3.007 0,3.988c-0.179,0.522 -0.974,1.052 -1.248,1.497c-1.129,1.807 -1.955,3.171 -3.24,4.738c-0.219,0.256 -0.872,0.499 -0.996,0.998c-0.779,3.062 0.748,1.954 1.496,2.242c0.171,0.063 0.974,0.804 1.246,0.998c-0.459,0.975 -1.589,2.517 -0.748,3.99c0.148,0.265 0.842,0.412 0.998,0.746c0.163,0.367 -0.351,0.181 -0.25,0.75c0.242,1.464 1.878,1.496 3.242,1.496c-0.148,0.054 -0.951,0.732 -0.998,0.747c-2.408,0.709 -2.05,-0.342 -2.992,1.996c-1.115,-1.474 -1.947,-1.825 -4.238,-2.244c-0.188,0.389 -0.461,0.483 -0.75,0.748c0.452,1.13 0.468,1.675 0.998,2.742c-0.398,0.265 -1.199,0.617 -1.496,0.998c-0.281,0.344 -0.194,0.957 -0.498,1.246c-0.257,0.234 -0.694,0.056 -0.998,0.25c-0.319,0.195 -0.756,0.934 -0.998,1.246c0.101,0.171 0,0.788 0,0.998c1.263,0.32 1.411,0.459 2.992,0.248c-0.139,0.273 0.11,0.452 0,0.748l-0.498,0.25c-0.537,0.818 -0.28,1.309 -0.498,2.494c0.157,0.085 0.903,0.365 0.996,0.498c0.702,0.965 1.068,1.785 1.746,2.743c-0.491,0.327 -1.823,0.903 -1.994,1.496c-0.133,0.429 0.124,0.811 0,1.248c0.653,0.171 1.807,0.397 2.494,0.748c0.147,0.069 0.521,0.684 0.748,0.746c0.436,0.109 0.802,-0.117 1.246,0c-0.147,0.569 -0.281,1.123 -0.498,1.996c-0.624,0.024 -0.701,-0.483 -1.496,-0.248c-0.149,0.038 -0.515,0.63 -0.748,0.746c0.951,1.769 -0.119,1.286 2.492,1.496c0.241,0.663 0.514,1.426 0.748,1.994l0.25,0c0.194,1.053 -0.335,1.419 -0.25,2.494c0.063,0.897 0.851,2.696 0.998,3.491c0.102,0.576 -0.194,1.193 0,1.746c0.032,0.101 0.436,0.226 0.498,0.498c2.066,-0.733 0.624,0.429 1.994,-1.246c0.274,0.133 0.453,-0.118 0.75,0c0.07,0.023 0.584,0.709 0.748,0.748c1.075,0.242 1.23,-0.46 2.243,0c1.099,0.498 -0.117,1.24 -0.25,1.746c-0.078,0.28 0.101,0.715 0,0.996c1.839,1.317 2.517,2.082 5.232,1.996c0.14,-0.343 0.25,-0.921 0.5,-1.248c0.19,-0.265 0.81,-0.28 1,-0.498l0,2.742c0.06,0.304 1.45,1.995 1.75,2.494c0.67,-0.054 1.3,0 1.99,0c0.08,-0.163 0.35,-0.967 0.5,-0.998c2.24,-0.506 2.84,1.933 3.99,2.244c0.71,0.187 1.11,-0.139 1.74,-0.248c0.25,0.296 0.37,1.114 0.75,1.246c0.27,0.087 0.74,-0.14 1,0c0.05,-0.265 0.46,-0.396 0.5,-0.498c0.14,-0.428 -0.13,-0.819 0,-1.248c-0.23,-0.047 -1.34,-0.076 -1.75,-0.248c-0.43,-0.194 -0.62,-1.371 -0.99,-1.496l-0.5,0c-0.14,-0.273 0.13,-0.741 0,-0.998c0.17,-0.272 0.6,-0.694 0.74,-0.998c0.33,0.296 1.03,0.343 1.25,0.748c0.13,0.234 -0.08,0.733 0,0.998c0.1,0.382 0.78,0.686 1,0.998c0.47,-0.093 1.01,0.109 1.49,0c0.86,-0.202 1.07,-1.201 2.25,-1.248c1.35,-0.062 2.62,1.24 4.49,0.748c1.27,-0.343 0.96,-1.978 1.74,-2.492c0.88,-0.584 2.1,-0.15 3.24,-0.5c0.28,-0.094 0.71,-0.615 1,-0.748c0,-0.218 -0.1,-0.809 0,-0.996c0.13,-0.272 0.58,-0.173 0.75,-0.5c1.17,0.374 2.65,1.194 3.99,0.5c0.32,-0.172 0.48,-1.053 0.75,-1.248c0.25,-0.203 0.71,-0.108 1,-0.248c0.24,-0.133 0.74,-0.874 0.99,-0.998c0.59,-0.312 1.18,-0.28 1.75,-0.498c0,0 0.32,-1.169 0.25,-1.496c-0.1,-0.382 -0.93,-0.718 -1,-0.999c-0.19,-0.732 0.32,-0.63 0.25,-1.246c0.35,-0.256 0.5,-0.639 0.75,-0.998c0.97,0.133 2.08,0.437 2.99,0c0.54,-0.272 0.38,-0.825 0.75,-1.246c0.49,-0.584 1.63,-1.067 2.24,-1.496c-0.11,-0.81 -0.36,-1.628 -0.25,-2.244c0.1,-0.561 1,-1.091 1.25,-1.496c0.32,-0.537 0.23,-0.927 0.5,-1.496c-0.09,-0.063 -0.72,-0.407 -0.75,-0.5c-0.12,-0.288 0.14,-0.482 0,-0.746c1.99,-1.411 2.36,-2.167 0,-3.492c1.48,-0.771 2.76,-1.558 4.24,-2.243c-0.12,-0.327 0,-0.897 0,-1.248c-0.3,-0.139 -0.73,-0.662 -1,-0.748c-1,-0.311 -1.61,0.032 -2.24,-0.498c-0.27,-0.225 -0.15,-0.827 -0.25,-1.248c-0.56,0.195 -0.38,-0.692 -0.5,-0.996c0.04,0 1.39,0.092 1,0.248c1.6,-0.186 4.4,-0.38 2.99,-2.492c-0.13,-0.194 -0.94,-0.305 -1,-0.5c-0.15,-0.49 0.44,-1.198 0.25,-1.994c-0.16,-0.631 -1.09,-0.755 -1.25,-0.996c-0.51,-0.78 -0.74,-1.006 0.25,-1.496c-0.12,-1.707 -0.21,-1.638 0.75,-2.495c0.05,-0.055 0.67,0 0.75,0c0.04,-0.28 0.02,-1.426 0.25,-1.746l1.49,-0.746c-0.34,-1.045 -0.74,-2.051 -0.5,-2.744c0.07,-0.202 0.71,-0.809 0.75,-0.996c0.1,-0.578 -0.34,-0.368 -0.25,-0.75c-0.28,0.063 -0.97,0.25 -1,0.25c-0.62,2.096 -0.38,2.82 -1.74,0.998c-0.66,0.078 -0.58,0.318 -1,0.498c0,0 -0.03,-1.566 0,-1.994c2,-0.46 1.25,-0.117 2.25,-1.496c0.22,0.156 0.48,-0.102 0.75,0c0.25,0.101 0.31,0.865 0.49,0.998c1.16,0.818 2.71,0.257 3.75,0c-0.12,-0.484 0.13,-1.03 0,-1.496c-0.09,-0.289 -0.92,-0.874 -1,-1.248c-0.07,-0.281 -0.14,-1.371 0.25,-1.246l0,-0.498c-0.06,-0.156 -0.72,-0.67 -0.75,-0.748c-0.06,-0.149 0.06,-0.616 0,-0.748c1.85,-0.811 2.09,-0.952 2.99,-2.745l0.5,-0.498c0.08,-0.545 -0.44,-0.959 -0.25,-1.746c0.09,-0.436 0.92,-0.974 1,-1.496c0.07,-0.554 -0.42,-1.161 -0.25,-1.994c0.1,-0.499 1.13,-1.339 1.24,-1.744c0.15,-0.546 -0.09,-1.193 0,-1.746c-1.63,-0.959 -1.55,-0.554 -1.74,-2.992c0.4,-0.258 0.15,-0.219 0.25,-0.748l0.5,0c0.02,0.498 -0.05,1.253 0,1.994c0.04,-0.009 1.38,-0.046 0.99,-0.248c0.1,-0.296 0.5,-1.278 0.75,-1.496c0.03,-0.039 0.01,-0.702 0,-0.748c-0.1,-0.406 -0.74,-0.898 -0.99,-1.249c0.2,-0.327 0.56,-0.7 0.74,-0.996c0.18,-0.304 0.7,-1.045 0.75,-1.248c0.27,-1.184 -0.48,-2.174 -0.5,-2.742c-0.04,-0.997 0.61,-1.511 0.5,-2.742l-0.5,-0.748c-0.57,-2.758 -0.12,-2.33 -2.74,-2.992c-0.12,0.498 -0.38,1.425 -0.5,1.994c-0.48,0.124 -0.31,-0.218 -0.5,0.25c-0.87,-0.04 -1.98,-0.211 -2.49,-0.25c0.11,-1.909 -0.02,-2.594 -0.5,-4.2384c-0.72,-0.1632 -1.96,-0.8501 -2.99,-0.5c-0.19,0.0551 -0.48,0.6151 -0.75,0.748c0,0.5767 0.09,1.1612 0,1.7464l-0.5,0c-0.25,-0.5228 0,-0.7944 -0.25,-1.2464c-0.35,-0.616 -1.6,-1.1545 -1.74,-1.9961c-0.25,-1.4108 0.68,-1.4487 0.5,-2.7421c-0.06,-0.3502 -2.19,-3.1799 -2.5,-3.2422c-1.38,-0.29613 -1.58,0.6396 -2.24,0.998c-0.81,0.4208 -1.75,0.6469 -2.5,0.9981c0.41,1.6363 1.37,4.6822 -1.74,3.9882c-1.1,-0.2493 -0.79,-1.004 -1.25,-1.9941c-0.07,-0.1631 -0.71,-0.3339 -0.74,-0.498c-0.23,-1.146 0.6,-2.1441 0,-3.2422c-0.36,-0.63897 -1.26,-0.4447 -2,-0.74808zm-74.303,31.666c-0.14,0.234 -0.576,0.07 -0.748,0.25c-0.358,0.35 -0.001,1.263 -0.25,1.746c-0.234,0.437 -1.552,1.076 -2.494,0.748c0,0 -0.467,-1.333 -1.246,-1.496c-0.725,-0.156 -1.66,0.233 -1.994,0.248l-0.25,1.996l-1.246,1.496l0.748,0.248c0.483,0.74 0.544,1.038 0.996,1.997c-0.265,-0.125 -0.723,0.093 -0.996,0c-0.857,-0.296 -1.785,-2.822 -2.744,-3.243c-1.216,-0.545 -3.31,-0.483 -4.737,-0.748c-0.256,0.35 -0.639,0.506 -0.998,0.748c0.009,0 0,0.709 0,0.748c0.312,0.078 0.398,0.623 0,0.498c-0.054,-0.015 -0.208,-0.42 -0.248,-0.498c-0.693,0 -1.558,0.023 -2.244,0c-0.296,1.637 -0.998,2.383 -1.746,3.491c-0.303,-0.234 -0.702,-0.023 -0.998,-0.248c-0.101,-0.079 -0.474,-0.929 -0.498,-0.998c1.676,-0.469 -2.813,0.094 -0.998,0.25c-0.405,0.116 -0.692,0.006 -0.996,0.248l-1.496,1.746c-0.39,0.693 -0.188,2.026 -0.998,2.494c-0.374,0.21 -1.45,0.194 -1.747,0.248c-1.222,3.21 -1.051,1.083 -2.992,1.994c-0.319,0.141 -0.467,1.014 -0.748,1.248c-0.256,0.194 -0.723,0.101 -0.996,0.248l-0.25,0.498c-1.09,0.702 -2.12,0.461 -3.242,0.5c-0.148,0.35 -0.24,1.075 -0.498,1.496c-0.428,0.67 -1.324,0.554 -1.994,0.998c-0.857,0.553 -2.891,3.788 -3.49,3.991c-0.079,0.022 -1.053,-0.283 -1.497,-0.252c-0.92,0.055 -2.486,0.547 -3.242,0.75c0,1.308 0.109,2.205 0.25,3.242c-0.576,-0.149 0.086,0.28 -0.498,0.248l-0.5,-0.5c-0.841,-0.226 -1.7997,0.585 -1.994,0.998c-0.4135,0.865 -0.0623,1.638 0,2.494c0.4281,0 1.083,-0.132 1.496,0c-0.226,2.852 0.077,2.891 -2.494,2.742c-0.0696,0.164 -0.6161,0.632 -0.748,0.748c0.2877,0.982 0.2194,1.434 0.5,2.494c-0.1092,-0.016 -1.0764,0.186 -1.4961,0.248c0,0 0.1084,-1.292 -2.4942,0.5c0.3657,2.752 -0.9115,3.7 -0.498,6.731c-0.7325,0.421 -1.5741,1.06 -2.2442,1.496c0.0853,0.436 -0.0935,0.804 0,1.248c0.1247,0.624 0.9046,1.449 0.9981,2.244c0.0925,0.866 -0.0094,1.605 -0.25,2.244c-0.0088,0.016 -0.4981,0.248 -0.4981,0.248c-0.2805,1.543 0.3412,3.383 0.4981,4.739c0.3034,0.101 0.6389,-0.015 0.748,0.25c0.1092,0.265 -0.1402,0.731 0,0.996c-0.1797,0.211 -0.8505,0.498 -0.998,0.748c-0.81038,1.309 -0.0382,2.487 -0.2481,3.99c0,0 -0.4459,0.219 -0.5,0.25l0,0.498c-0.07059,0.39 -0.31166,1.223 0,1.994c0.0613,0.156 0.6078,0.36 0.7481,0.5l0,0.498c2.5786,0.18 2.6013,0.203 3.9883,-1.496c0.188,0.063 0.7178,0.266 0.75,0.25c-0.1092,0.351 -0.4699,0.825 -0.5,0.996c-0.079,0.367 0.25,1.496 0.25,1.496c0.1091,0.078 0.7013,0.36 0.748,0.5c0.186,0.577 -0.055,1.377 0,1.997c-2.2836,-1.06 -3.7716,-0.84 -2.7441,1.99c0.1257,0.35 -0.0213,0.57 0.2519,0.75c0.452,0.29 1.1447,-0.02 1.7442,0.25c0.1558,0.07 0.5839,0.96 0.748,1c1.6052,0.29 2.2508,-1.33 2.7422,-2.25c0.2809,0.14 0.6849,0.49 0.9979,0.5c-0.8653,1.73 -0.522,1.47 0,2.99c-0.055,0.03 0,0.69 0,0.75c-0.133,-0.36 -0.273,0.65 -0.25,0.75c0.32,1.48 2.368,1.34 3.74,1.25c-0.078,0.12 0.047,0.6 0,0.74c-0.266,0.67 -1.9,1.39 -2.492,1.75c0.148,0.42 -0.156,0.82 0,1.25c0.085,0.25 1.457,1.42 1.744,1.49c1.03,0.25 2.86,-0.4 3.491,-0.75c0.233,-0.13 0.646,-0.94 0.998,-0.99c0.793,-0.14 1.074,0.31 1.744,0.5c-0.016,0 0,0.71 0,0.74c-3.109,0.35 -3.924,1.12 -2.242,3.49c1.333,-0.34 1.651,-0.16 2.99,-0.49c0.102,0.81 0.33,2.43 1,2.74c0.451,0.2 1.23,-0.07 1.744,0c2.65,0.36 2.712,1.5 4.488,-1c1.278,0.14 2.065,0.36 2.992,0l0.498,-0.5c0.835,-0.11 1.692,0.45 2.245,0.5c0.709,0.05 0.959,-0.25 1.496,-0.25c0.156,-0.63 0.28,-1.18 0.498,-1.99c-0.397,-0.32 -0.802,-0.48 -1.246,-0.75l0,-0.5c0.826,-0.39 1.761,-1 2.494,-1.25c0.857,-0.28 2.19,-0.4 2.992,0l0.498,0.5c1.285,0.19 1.925,-0.61 2.742,-0.75c0.561,-0.1 1.475,0.22 1.996,0c0.764,-0.33 0.717,-1.88 1.246,-2.49c0.554,-0.65 1.807,-0.96 2.493,-1.5c-0.234,-0.6 0.748,0 0.748,0c0.35,2.27 -0.031,1.89 2.244,2.25c0.374,-0.71 0.99,-2.22 1.996,-2.25c0.436,-0.01 0.14,0.35 0.748,0.25c0.125,0.35 -0.133,0.89 0,1.25c0.047,0.13 0.623,0.49 0.748,0.75c0.273,-0.11 0.708,0.07 0.996,0c0.779,-0.22 1.2,-2.03 1.496,-2.74c2.79,-0.12 2.214,0.14 3.242,-1.75c1.114,0.15 1.69,0.07 2.743,0c0.054,-0.27 0.461,-0.4 0.5,-0.5c0.187,-0.54 -0.187,-1.2 0,-1.74c0.147,-0.45 1.2,-0.87 1.496,-1.25c0.319,-0.43 0.365,-1.16 0.748,-1.5c0.732,-0.66 1.877,-0.69 2.244,-1.74c0.187,-0.55 -0.109,-1.17 0,-1.747c0.047,-0.296 0.717,-1.2 0.748,-1.496c0.187,-1.901 -0.914,-2.072 -1.996,-2.742c-0.328,0.436 -0.662,0.817 -0.996,1.246c0.623,0.118 -0.748,0.498 -0.748,0.498c0.233,-1.347 -0.196,-1.309 1.246,-2.244c0.576,-0.381 0.95,-0.343 1.496,-0.748c0.163,-0.132 0.303,-0.662 0.498,-0.748c0.849,-0.412 1.887,-0.031 2.744,-0.498c0.397,-0.225 0.186,-1.004 0.498,-1.246c-0.39,-0.717 -0.093,-0.827 -0.748,-1.248c-0.374,-0.241 -0.771,-0.296 -1.246,-0.498c0.265,-0.179 0.444,-0.881 0.748,-0.998c0.717,-0.288 1.44,0.072 1.994,-0.248c0.49,-0.296 0.163,-0.781 0.498,-1.248c0.21,-0.312 1.053,-0.46 1.248,-0.748c0.226,-0.359 1.137,-3.047 0.996,-3.741c-0.086,-0.397 -0.864,-0.715 -0.996,-0.996c-0.273,-0.584 -0.056,-0.982 -0.252,-1.746c0.327,-0.015 0.368,-0.467 0.5,-0.498c0.531,-0.14 0.717,0.429 0.996,0.498c1.513,0.343 1.832,-0.546 2.494,-0.998c-0.124,-1.067 -0.287,-2.383 -0.248,-3.24c-1.184,-0.6 -1.676,-0.226 -1.746,-1.994c-0.078,-1.716 0.85,-1.605 0.998,-2.244c0.117,-0.522 -0.242,-1.396 -0.25,-1.497c-0.187,-2.198 0.608,-2.422 0,-4.488c0.335,-0.123 0.895,0 1.246,0c0.748,-1.597 0.656,-0.943 0.25,-2.744c-0.335,-0.101 -0.786,-0.061 -0.996,-0.248c-0.553,-0.513 -1.052,-1.427 -1.496,-1.996c1.076,-0.856 1.837,-1.705 2.99,-2.492c-0.132,-0.436 0.125,-0.819 0,-1.248c-0.046,-0.148 -0.694,-0.739 -0.748,-0.996c-0.233,-1.083 -0.107,-1.777 -0.248,-2.743c0.281,0.008 1.356,0.186 1.995,0.248c0,0 0.296,-1.152 0.25,-1.496c-0.024,-0.124 -1.194,-3.187 -1.249,-3.242c-0.249,-0.233 -0.989,-0.334 -1.246,-0.498c0.366,-1.153 1.217,-3.225 -0.248,-3.738c-0.429,-0.157 -0.827,0.147 -1.248,0c-0.179,0.466 -0.304,0.894 -0.5,1.244c-1.245,2.174 -0.216,0.143 -1.244,0.5c0,-0.452 0.109,-1.067 0,-1.496c0.077,-0.046 0.483,-0.201 0.498,-0.248c0.109,-0.367 0.249,-0.314 0.498,-0.5c-0.202,-0.546 -0.428,-1.115 -0.498,-1.496c-0.444,0.21 -2.011,0.864 -2.494,0.748c-0.055,-0.016 -0.623,-0.717 -0.748,-0.748c-0.289,-0.078 -0.724,0.1 -0.996,0c-0.195,0.187 -0.78,1.17 -0.998,1.248c-0.272,0.085 -0.749,-0.14 -0.998,0c0.873,0 -0.491,-3.227 -0.498,-3.242c1.278,-0.476 1.332,-0.623 2.244,-1.246c-0.117,-0.437 0,-1.053 0,-1.497c-1.091,-0.21 -1.309,-0.359 -2.742,-0.25c-0.32,-0.654 -0.242,-0.577 -0.748,-0.998c-0.764,0.468 -0.866,0.781 -1.996,1.248c-0.289,2.532 -0.132,2.5 1.996,2.493c-0.515,1.035 -0.421,1.426 -0.748,2.744c-0.624,-0.826 -1.528,-1.762 -2.494,-2.244l-0.25,0c-0.429,-0.866 -0.117,-2.081 -0.249,-2.993c0.53,-0.101 0.468,0 0.749,-0.25c0.365,-0.343 1.215,-0.601 1.496,-0.998c0.116,-0.171 0.202,-1.044 0,-0.748c-0.078,-0.039 -0.36,-0.926 -0.5,-0.996c-1.185,-0.616 -2.983,0.241 -3.989,0c-0.709,-0.18 -1.076,-1.77 -1.746,-1.996l-0.498,0zm154.34,3.242l-0.5,0.25c-0.28,0.428 -0.12,0.67 -0.25,1.246c-1.14,-0.304 -1.61,-0.202 -2.74,-0.498c-1.52,3.265 -0.98,2.345 -4.74,2.493l-1.25,0.5c-0.19,0.038 -0.44,-0.219 -0.25,-0.25c-0.35,-0.156 -0.9,0.147 -1.24,0c-0.32,-0.141 -0.38,-1.723 -1.75,-1.248c-0.03,0.008 -0.6,0.952 0,0.75c0,0 0.2,1.222 0.25,1.496c-1.14,0.81 -0.96,0.52 -1.74,1.744c-0.74,-0.218 -1.01,-0.171 -1.5,-0.498c-0.94,-0.632 -0.44,-1.178 -0.25,-0.998c0.09,-0.554 0.73,-0.529 0.5,-1.496c-0.06,-0.233 -0.87,-0.546 -1,-0.748c-0.21,-0.312 -0.13,-0.6 -0.25,-0.997c-0.08,0.016 -0.88,-0.187 -1.24,-0.25c-0.1,1.239 -0.21,2.517 0,3.991c-0.61,0.062 -2.17,-0.026 -3,0.248c-0.36,0.109 -1.13,1.199 -1.49,1.496c-0.31,-0.14 -0.93,0 -1.25,0c-0.11,-0.405 -0.16,-0.85 -0.25,-1.496c-0.7,-0.18 -1.71,-0.849 -2.99,-0.498c-0.16,0.038 -0.67,0.717 -0.75,0.748l-0.5,0c-1.8,1.761 0.99,2.158 2,2.742c0.31,0.18 0.68,0.802 1,0.996c-0.42,0.282 -0.69,0.461 -1,0.75c-1.09,-0.772 -2.31,-1.684 -4.24,-0.998c-0.42,0.14 -0.83,0.881 -1.25,0.998c-0.47,0.125 -1.02,-0.095 -1.49,0c-0.26,-0.99 -0.81,-2.954 -2,-2.992c-0.39,-0.016 -0.73,0.389 -1.25,0.498c-0.06,0.265 -0.46,0.391 -0.5,0.5c-0.23,0.662 -0.2,1.752 -0.24,2.242c-1.83,0.469 -3.07,0.998 -5.24,1.248c-0.37,0.981 -0.61,1.644 -1,2.494l-0.5,0l0,-0.5c-0.42,-1.2 -1.63,-0.678 -2.49,-0.498c-0.32,1.901 -0.81,2.291 -1.49,3.74c-2.13,-0.709 -1.66,-0.67 -3.25,0c0,0.452 0.11,1.045 0,1.496l0.75,0.249c-0.01,0 0,0.71 0,0.75c-1.26,-0.189 -1.96,-0.04 -2.99,0c-0.09,0.561 -0.69,0.489 -0.5,1.494c0.01,0.055 0.79,0.975 0.75,0.998c-0.71,0.297 -1.06,1.993 -1.25,2.742c-2.06,0.521 -3.03,0.459 -4.49,1.496c0.09,0.561 -0.19,1.208 0,1.746c0.17,0.467 1.42,0.834 1.75,1.246c0.39,0.492 0.48,1.667 1,1.994c0.57,0.36 1.11,-0.078 1.49,0c0.06,0.009 0.27,0.462 0.5,0.5c-0.01,0.016 -0.44,1.482 -0.25,1.496c-1.66,-0.185 -2.15,-0.164 -3.74,0.248c0.11,-1.168 0.4,-2.85 -0.75,-3.24c-0.28,-0.101 -0.74,0.118 -0.99,0c-0.07,0.265 -0.47,0.389 -0.5,0.498c-0.4,1.154 0.53,1.62 0.25,2.742c-0.17,0.601 -3.56,3.398 -4.24,4.241c0.29,0.28 0.12,0.467 0.25,0.998c0.6,0.155 1.61,0.621 2.24,0.746c-2.87,0.709 -4.28,1.73 -2.99,4.488c-0.87,0.616 -3.01,2.93 -2.74,4.488c0.05,0.343 0.91,0.749 0.99,0.998c0.1,0.274 -0.12,0.732 0,0.997c-0.54,0.311 -3.36,2.401 -3.49,2.744c-0.17,0.444 0.11,1.021 0,1.496c0.11,0.024 0.81,0.139 1,0.248s0.1,0.654 0.25,0.748c-0.4,0.67 -1.56,1.558 -1.75,2.244c-0.28,1.037 0.47,2.915 -0.5,3.242c-0.56,0.18 0.75,1.496 0.75,1.496l0,0.25c0.18,0.085 0.65,0.863 0.75,0.996c0.26,0.359 0.43,0.469 0.75,0.749c-0.53,0.77 -1.81,2.07 -1.25,3.74c0.06,0.18 0.62,0.48 0.75,0.75c0.7,-0.12 1.24,-0.24 1.75,-0.25l0,2.49c0.05,-0.54 0.01,2.61 0.25,2.99c0.15,0.26 1.2,0.29 1.49,0.5c0.17,0.13 0.27,0.85 0.5,1c0.57,0.35 1.71,0.57 2.24,0.75c0,0.65 -0.22,1.88 0,2.49c0.27,0.73 1.46,0.67 2.25,1c0.25,-0.37 0.71,-0.63 1,-1c0.22,-0.3 0.32,-0.7 0.5,-1c0.2,0.6 0.73,2.36 1.24,2.75c0.87,0.67 1.79,0.4 2.99,0.25c-0.11,0.17 0.04,0.56 0,0.74c-0.07,0.27 -1.03,1.04 -1.24,1.25c0.22,0.32 0.36,0.93 0.5,1.25c0.81,0 1.52,-0.11 2.49,0c0.39,0.04 1,0.71 1.99,0.5c0.22,-0.06 0.78,-0.93 1,-1c0.28,-0.1 0.73,0.11 1,0c1.43,2.02 0.5,2.13 3.49,2.74c0.83,-1.19 1.59,-3.73 3.99,-3.24c0.14,0.02 0.73,0.94 1,1c0.92,0.19 1.44,-0.54 2.49,-0.25c0.24,0.06 0.52,0.86 0.75,1c0.39,0.24 0.8,-0.01 1.24,0.24c0.25,0.14 0.29,0.85 0.5,1c0.43,0.31 3.52,1.52 4.49,1.25c0.43,-0.13 0.7,-1.12 1.25,-1.25c1.33,-0.33 1.95,0.57 3.24,0.25c0.88,-0.22 1.44,-1.95 1.75,-2.74c3.41,0.46 2.28,0.08 4.23,-1.25c0.4,-0.28 0.88,-0.22 1.25,-0.5c0.22,-0.17 0.49,-0.92 0.75,-0.99c1.01,-0.34 2.2,0.25 3.24,0c0.44,-0.12 0.89,-0.78 1.25,-1c-0.08,-0.42 -0.27,-1.12 -0.25,-1.25c-0.6,-0.27 -1.23,-0.74 -1.75,-1c0.84,0.07 1.99,0.33 2.49,0.25c0.89,-0.14 3.1,-1.84 3.25,-2.74c0.12,-0.81 -1.15,-1.8 0,-2.24c0.61,-0.24 1.58,0.1 2.24,0c0.59,-0.1 1.71,-0.8 2.24,-1c-0.11,-0.33 0,-0.9 0,-1.25c-1.69,-0.8 -2.02,-0.86 -3.74,0.25l-0.25,0.5c-0.88,0.15 -0.7,-0.46 -1.24,-0.5c0.06,-0.38 0.26,-1.16 0.25,-1.24c1.97,0.18 2.93,0.18 3.99,-1c1.88,-2.12 0.82,-2.73 -1.5,-3.49c0.13,-0.28 -0.12,-0.46 0,-0.75c0.1,-0.28 0.9,-0.723 1,-0.997c0.09,-0.28 -0.12,-0.733 0,-0.998l0.5,0c0.04,0.024 0,0.905 0,0.998c0.32,0.165 0.58,0.164 0.74,0.498c1.34,-0.443 3.59,-1.331 3.74,-2.742c0.22,-2.135 -2.37,-2.082 -3.74,-1.996c0.59,-1.425 0.77,-2.196 0.5,-3.988c0.6,-0.218 0.87,-0.117 1.5,-0.25c0.05,-0.272 0.46,-0.396 0.5,-0.498c0.45,-1.325 -0.06,-1.263 0.75,-2.244c0.31,-0.39 0.85,-0.663 1.24,-0.998c-0.06,0.218 -0.48,0.866 -0.5,0.998c-0.12,0.826 0.47,1.035 0.25,1.744c-0.08,0.249 -1.04,0.811 -1.24,0.998c0.11,0.32 0,0.888 0,1.246c1.22,0.234 1.1,1.123 2.49,-0.248c0.44,-0.452 0.25,-0.826 0.5,-1.496c0.23,0.147 0.73,-0.109 1,0c0.19,0.078 0.42,1.043 0.5,1.246c0.98,-0.475 2.27,-0.592 2.74,-1.496c0.11,-0.226 0.76,-3.545 0.75,-3.74c-0.04,-0.413 -0.68,-0.796 -0.5,-1.747c0,0 1.13,-1.97 1.25,-2.244c-0.87,-0.233 -1.07,-0.552 -2,-0.748c0.13,-0.085 -0.14,-0.669 0,-0.748c0.36,-0.218 0.87,-0.162 1.25,-0.248c-0.02,-0.28 -0.17,-1.504 0,-1.996c0.06,-0.21 0.81,-0.599 0.99,-0.748c-0.58,-1.238 -0.73,-1.954 -1.24,-3.24c0.53,-0.257 1,-0.173 1.49,-0.5c0.2,-0.139 0.52,-0.91 0.75,-0.996c0.79,-0.319 1.54,-0.016 2.24,-0.248c0.46,-0.164 0.78,-0.758 1.5,-0.75c1.54,0.015 1.86,1.589 2.25,2.742c0.22,-0.132 0.83,-0.505 0.99,-0.496c-0.1,-1.341 0.07,-1.88 0.25,-2.994c0.05,-0.296 -0.23,-0.639 -0.25,-0.498l0,-0.748c0.86,-0.678 1.63,-1.324 2.5,-1.995c-0.1,-0.484 0.12,-1.029 0,-1.496l-0.5,-0.498s-0.23,-0.452 -0.25,-0.5c-0.81,0.118 -1.73,0.492 -2.5,0.25c-0.12,-0.038 -0.54,-0.654 -0.74,-0.748c0.58,-0.949 0.74,-1.286 1.49,-1.996c-0.33,-1.308 -1.2,-5.002 -0.99,-6.232c0.15,-0.975 1.69,-1.715 1.99,-2.494c0.72,-1.971 -0.62,-6.491 -1.75,-6.981c-1.18,-0.515 -2.56,0.297 -3.73,-0.25c-0.38,-0.179 -0.26,-0.903 -0.5,-1.246c-0.52,-0.71 -1.56,-0.477 -2.25,-0.998c-0.79,-0.601 -1.64,-3.661 -2.49,-3.988c-0.27,-0.102 -0.53,0.155 -0.75,0c-0.45,2.485 -0.37,2.384 -2.74,2.992c-0.18,-0.327 -0.24,-0.882 -0.5,-1.248c-0.2,-0.273 -1.17,-0.492 -1.25,-0.748c-0.29,-0.935 0.54,-1.425 0.25,-2.492c-0.11,-0.374 -0.97,-0.757 -1.25,-0.998c0,0 0.23,-0.468 0.25,-0.5c0.61,0.047 1.42,-0.195 2,0c0.5,0.164 0.86,1.333 1.5,1.498c3.16,0.802 2.5,-1.528 1.24,-2.495c-0.84,-0.654 -1.57,-0.919 -2.49,-1.496zm-92.21,66.049c-0.19,0.02 -0.37,0.14 -0.55,0.03c-0.12,0.2 -0.77,0.38 -0.99,0.5c0.01,0.13 0,3.24 0,3.24c-0.13,0.18 -0.63,0.3 -0.75,0.5c-0.11,0.16 -0.12,1.13 -0.25,1.24c-0.38,0.31 -0.62,0.13 -1.25,0.25c0.31,0.16 -0.59,0.3 -0.75,0.25c-0.11,-0.04 -0.24,-0.42 -0.5,-0.5c0.18,-1.31 0.5,-2.77 -0.74,-3.24c-0.5,-0.2 -0.58,0.35 -1.25,0.25c-0.21,-0.04 -0.79,-0.71 -1,-0.75c-1.97,-0.43 -2.82,0.89 -3.74,1.5c-0.25,-0.17 -0.48,0.1 -0.75,0c-0.38,-0.15 -0.64,-1.09 -0.99,-1.25c-0.88,-0.42 -3.09,-0.24 -3.99,0.25c-1.19,0.64 -0.56,3.31 -1.25,4.49c-0.11,0.18 -1.72,1.48 -1.99,1.74c-0.291,-0.27 -1.226,-1.41 -1.498,-1.49c-2.604,-0.75 -4.2,3.71 -5.487,-1c-0.14,-0.02 -0.958,-0.38 -1.496,-0.25l-0.248,0.5c-0.826,0.53 -1.513,1.61 -0.252,2.24c0.211,0.1 -0.35,0.28 -0.248,0.5c-0.545,0.14 -1.2,0.6 -1.746,0.5c-0.638,-0.13 -0.561,-1.23 -1.994,-1c-0.351,0.06 -2.088,1.71 -2.244,1.75c-0.554,0.12 -1.715,-0.16 -2.494,-0.25l-0.248,0.75c-1.972,0.51 0.162,-1.01 0.498,-1.25c-0.071,-0.38 -0.265,-1.16 -0.25,-1.25c-1.005,-0.15 -1.3,-0.1 -2.242,-0.24c-0.071,0.32 -0.298,0.33 -0.5,0.49c0.256,1.02 0.25,1.45 0.5,2.25c-0.632,0.29 -1.474,0.15 -1.747,0.75c-0.242,0.49 -0.211,1.88 -0.25,2.24c-0.507,-0.16 -0.497,0.4 -0.996,0.25c-0.328,-0.1 -0.515,-1.11 -0.998,-1.25c-1.302,-0.39 -2.478,-0.07 -3.74,-0.25c-0.203,2.51 -1.363,4.13 -2.492,5.74c-0.117,-0.09 -0.632,0 -0.748,0c-0.523,-1.11 -0.452,-0.89 -0.748,-2.5c-0.421,-0.11 -0.391,0.19 -0.5,-0.24c-0.258,0.13 -0.731,-0.1 -0.996,0c-0.118,0.03 -0.244,0.4 -0.5,0.49c0,0.01 0.024,1.17 0.25,0.75c-0.063,0.24 -0.25,1 -0.25,1c-0.577,0.09 -1.207,-0.19 -1.744,0c-0.359,0.12 -0.648,1.09 -0.998,1.25c-1.824,0.79 -3.414,-0.26 -4.739,-0.75c-0.53,0.72 -0.903,0.86 -1.246,1.99c0.008,-0.19 0.094,-1.67 0,-1.99c-0.047,-0.15 -0.459,-0.19 -0.498,-0.5c-0.358,0.13 -0.898,-0.13 -1.248,0c-0.195,0.06 -0.653,0.55 -0.996,0.75c-0.241,-0.16 -0.499,-0.87 -0.748,-1c-0.359,-0.19 -2.947,-0.67 -3.492,-0.5c-0.047,0.01 -0.202,0.45 -0.248,0.5c-1.458,1.28 -0.703,0.98 -0.5,2.49l0.25,1c0.007,-0.01 1.169,-0.03 0.748,-0.25c0.288,0 0.702,0.02 0.998,0c0,0.08 -0.039,0.98 0,1c-0.592,-0.12 -0.413,0.36 -0.998,0.25c-0.203,-0.04 -0.796,-0.96 -0.998,-1c-0.771,-0.16 -3.443,0.68 -3.989,1c-0.249,0.14 -0.071,0.57 -0.25,0.75c-0.303,0.28 -0.856,0.25 -1.246,0.5c-0.163,0.09 -0.342,0.68 -0.498,0.74c-0.148,0.06 -0.615,-0.07 -0.748,0c-0.18,-0.46 -0.375,0.01 -0.5,-0.25c-0.101,-0.2 0,-0.78 0,-0.99c-0.436,-0.11 -0.139,-0.1 -0.248,-0.5c-0.436,0 -1.091,0.12 -1.496,0c-0.553,0.77 -1.17,1.81 -1.996,2.24c-1.207,0.62 -4.051,0.76 -4.736,1.75c-0.265,0.36 0.008,0.62 -0.25,1c-0.437,-0.16 -0.195,0.27 -0.25,0.49c-0.639,-0.19 0,0.75 0,0.75c0.655,0.2 0.81,-0.26 1.496,-0.25c0,0.03 -0.008,0.74 0,0.75c-0.615,0.18 -0.561,0.08 -1.246,0.25c0.374,0.26 -0.702,0.23 -0.748,0.25l-0.25,-1.25c-0.172,-0.1 -1.176,0.14 -1.246,0c-0.21,-0.41 0,-1.52 0,-1.99c-2.673,-0.6 -1.816,-0.43 -2.993,1.74c-0.046,0.08 -0.748,0.73 -0.748,0.75c-0.202,0.89 0.368,1.68 0.25,2.25c-0.062,0.26 -0.662,0.49 -0.748,0.74c-0.303,-0.13 -0.912,0 -1.248,0c0.04,-0.7 0.11,-0.99 0.25,-1.74c-0.218,-0.17 -0.443,-0.15 -0.498,-0.5c-0.475,0.02 -1.744,0.25 -1.744,0.25c-0.017,0.02 -0.711,0.2 -0.75,0.25c-0.35,0.33 -0.155,1.39 -0.498,1.74c-0.499,0.49 -1.481,0.3 -1.996,0.75c-0.172,0.14 0,0.64 -0.248,0.75c-0.351,0.13 -0.905,-0.14 -1.248,0c0.257,-0.13 -0.496,-0.5 -0.496,-0.5c0.045,-0.08 0.496,-0.75 0.496,-0.75c0.888,-0.27 1.762,-0.13 2.246,-0.74c0.046,-0.07 0.498,-0.75 0.498,-0.75c0.085,-0.38 -0.25,-1.5 -0.25,-1.5c-2.361,0 -3.725,0.28 -4.986,2c-0.211,0.27 -0.211,0.86 -0.498,0.99c-0.764,0.34 -1.637,-0.11 -2.245,0.25c-0.319,0.18 -1.262,3.15 -0.998,3.99c0.055,0.17 0.624,0.48 0.748,0.75c0.452,0 1.045,-0.11 1.496,0c-0.032,0.05 -0.304,0.48 -0.25,0.5c-1.908,0.33 -1.971,0.75 -2.742,2.24c-2.486,0 -2.8749,0.2 -3.49,2l0,0.5c-0.507,0.4 -1.4652,0.12 -1.996,0.49c-1.2229,0.85 -0.2481,4.34 -0.2481,6.49c1.0826,0.29 2.6255,0.8 2.9922,1.74c0.1009,0.27 -0.1642,0.5 0,0.75c-0.5849,0.41 -3.8812,3.33 -3.9902,3.74c-0.2338,0.79 0.1803,1.32 0.25,2c0.3272,-0.02 0.8259,0.37 1.4961,0.25c0.5308,-0.11 0.6542,-0.78 0.996,-1c0.0088,0 1.1085,0.39 0.75,0.5c0.1548,0.11 0.662,0.32 0.748,0.5c0.281,0.56 0.054,0.98 0.248,1.74c-0.343,0.06 -0.366,0.48 -0.4979,0.75c-0.2732,-0.13 -0.5694,-0.69 -0.7481,-0.75c-0.5298,-0.18 -1.2006,0.08 -1.746,0c-0.265,0.81 -1.1208,2.3 -0.9961,3.24c0.0156,0.16 0.6993,0.64 0.7461,0.75c0.375,0.84 -0.0697,0.86 0,1.74c-0.319,-0.16 -0.2007,0.39 -0.7461,0.25c-0.0624,-0.01 -0.2819,-0.44 -0.5,-0.49c0.989,-0.38 -1.3943,-0.38 -0.7481,-0.25l-0.248,0.99c0.9973,0.61 2.8118,1.05 3.4902,2c0.373,0.53 0.2566,1.34 0.748,1.74c0.779,0.65 1.744,0.27 1.994,1.5c0.28,1.43 -0.709,1.84 -0.498,2.99c0.109,0.63 1.247,0.99 1.496,1.5c0.186,0.39 0.474,1.79 0.498,1.99c0.101,1.12 -0.288,3.92 0.25,5.24l0.25,0c0.747,0.37 1.292,1.75 1.994,1.99l0.498,0c0.125,0.11 0.079,0.66 0.25,0.75c0.554,0.28 1.168,-0.07 1.745,0.25c0.46,0.26 2.478,3.1 1.498,3.99c1.238,0.97 3.746,1.61 3.488,3.99c-0.008,0 -0.654,1.03 -0.746,1.25c0.31,-0.17 0.193,0.38 0.746,0.25c0.273,-0.07 0.344,-0.73 0.5,-1c0.195,0 0.825,0.1 0.996,0c0.523,0.5 2.549,2.02 0.748,2.49c-0.179,-0.22 -0.498,-0.91 -0.748,-0.99c-0.28,-0.11 -0.738,0.11 -0.996,0c-0.125,0.24 -0.554,0.57 -0.748,0.74c0,0 0,0.91 0.248,0.5c0.171,0.57 0.111,0.41 0.252,1c0.499,-0.24 0.248,1.74 0.248,1.74c1.504,-0.49 2.043,-0.62 3.74,-0.49c0.04,-0.09 0.201,-0.5 0.248,-0.5c0.227,-0.07 1.225,0.18 0.998,0.25c0.375,0.63 0.81,1.18 1.246,1.74c-1.145,0.34 -2.476,0.38 -2.742,1.5c-0.038,0.12 0.063,0.63 0,0.75c-0.156,0.25 -0.903,0.46 -0.998,0.74c-0.132,0.35 0.125,0.89 0,1.25c0.452,-0.22 0.836,-0.02 1.248,-0.25c0.46,-0.27 0.818,-1.16 1.246,-1.5c0.842,-0.68 1.667,-1.05 2.494,-1.74c0.576,0.84 1.262,2.02 1.995,2.74c0.304,0.31 1.333,0.61 1.496,1c0.288,0.72 -0.304,0.92 -0.25,1.49l0.5,0.75c0.366,1.83 0.102,1.37 0.748,2.75c0.273,-0.11 0.708,0.07 0.996,0c0.685,-0.19 1.442,-1.3 1.996,-1.75c1.878,1.7 3.459,3.06 6.482,1.5c-0.163,1.48 -0.326,2.94 0.998,3.49c0.398,0.16 0.763,-0.07 0.996,0.25c0.172,0.23 0.632,1.96 0.748,2.24c2.829,-0.42 3.577,-0.08 5.487,1c0.382,-0.24 1.402,-1.36 1.994,-1.25c0,0 -0.196,1.21 -0.25,1.5c0.179,0.12 1.394,0.82 1.496,0.99c0.203,0.39 -0.102,1.06 0,1.5c0.094,0.43 1.193,1.22 1.248,1.5c0.101,0.57 -0.367,0.92 -0.5,1.49c0.686,-0.15 1.731,-0.62 2.494,-0.49c0.702,0.11 1.232,1.17 1.746,1.49c0.398,0.25 0.802,-0.01 1.246,0.25c0.678,0.39 1.933,3.01 2.245,3.99c0.942,-0.31 2.672,-0.75 3.74,-0.75c0.311,-0.01 0.849,0.5 1.496,0.25l0,-0.25c0.405,-0.21 0.444,-0.79 0.748,-1c0.405,-0.28 0.77,0 1.246,-0.24c0.748,2.47 -0.234,1.57 2.244,2.24c0.054,-0.09 0.398,-0.72 0.5,-0.75c0.281,-0.11 0.475,0.14 0.748,0c0.21,0.17 0.506,0.87 0.748,1c0.693,0.37 2.703,0.4 3.49,0.5c0.086,0.56 -0.195,1.2 0,1.74c0.382,1.06 5.01,1.92 6.483,2.25c0.109,0.43 -0.117,0.8 0,1.24c0.007,0.04 2.174,2.21 2.244,2.25c2.19,0.99 2.259,-0.7 3.242,-1c1.994,-0.62 2.726,0.57 3.489,1c0.406,0.22 0.787,0.03 1.248,0.25c0.139,-0.37 0.413,-0.34 0.748,-0.5c-0.195,-1.4 -0.125,-2.16 -0.248,-2.99c0.396,0.1 0.598,-0.14 0.996,-0.25c0.218,0.38 0.833,1.83 1.246,1.99c1.41,0.53 3.26,-0.47 4.24,-0.5c1.67,-0.07 1.89,0.55 2.74,1.25c2.34,-1.03 2.54,-0.06 5.24,-0.5c0.25,-0.05 1.35,-0.73 1.49,-0.75c0.87,-0.14 1.71,0.34 2.25,0.25c0.23,-0.05 0.73,-0.63 0.99,-0.75c-0.11,-0.44 0.11,-0.81 0,-1.24c-0.02,-0.1 -2.49,-3.63 0.75,-2.75c0.11,0.03 0.56,0.71 0.75,0.75c0.51,0.09 0.77,-0.29 1,-0.25c-0.27,-0.2 0.2,-1.07 0.25,-1.24c-0.28,-0.15 -0.11,-0.44 -0.25,-0.5c-0.44,-0.22 -0.83,-0.15 -1.25,-0.25c0.03,-0.51 -0.27,-0.75 -0.25,-1c0.07,-0.89 1.58,-1.35 2,-1.99c0.31,-0.5 0.17,-1.22 0.5,-1.75c0.37,-0.64 3.31,-1.92 4.48,-1.74c0.12,0.01 0.7,0.72 0.75,0.74c0.26,0.09 0.76,-0.14 1,0c0.34,0.2 0.63,1.1 1,1.25c0.18,0.07 0.55,-0.13 0.75,0c0.21,-2.82 0.1,-2.17 2.24,-2.24c-0.03,0.66 0.15,1.59 0,2.24c-0.02,0.02 -0.71,0.46 -0.75,0.5c0.45,1.68 -0.1,1.19 1,2.24c-0.27,0.08 -0.39,0.46 -0.5,0.5c-0.39,0.13 -0.85,-0.11 -1.25,0c0.4,0.15 -0.95,0.24 -0.99,0.25c-0.07,-0.18 -0.11,-0.54 -0.25,-0.75c-1.24,-1.84 -0.93,-1.74 -3.99,-1.74c-0.17,0.48 -0.18,1.3 -0.5,1.74c-0.28,0.36 -1.15,0.44 -1.5,0.75c-0.37,0.33 -0.23,0.24 -0.5,0.75c0.01,0 0,0.71 0,0.75c0.17,0 0.85,-0.11 1,0c-0.01,0.08 0.18,0.86 0.25,1.24c-1.23,0 0.09,1.96 0.25,2.25c-0.82,0.64 -1.5,1.3 -2.24,1.99c0.13,0.44 0.31,0.54 0.25,1c2.59,1.52 3.1,1.25 4.48,-1.25c0.17,0.2 0.83,0.27 1,0.5c0.22,0.3 0.05,0.68 0.25,1c1,1.63 2.22,0.84 3.49,0.25c-0.21,-1.89 -0.04,-2.22 0.25,-3.49c0.24,0.14 0.73,-0.12 1,0c0.37,0.15 0.71,1.35 1.24,1.49c1.88,0.47 2.15,-0.95 3,-1.49c0.43,-0.29 0.79,-0.03 1.24,-0.25c0.44,-0.23 0.86,-0.96 1.25,-1.25c0.2,0.09 0.54,-0.05 0.75,0c0.39,0.09 0.7,0.86 0.99,1c0.85,0.39 1.32,0.05 2.25,0c0.04,-0.17 0.48,-0.7 0.5,-0.75c0.34,-1.35 -0.77,-2.01 0.25,-2.74c0.25,0.12 0.71,-0.1 0.99,0c0.39,0.13 0.46,1.03 0.75,1.24c1.34,0.98 2.43,0 3.49,-0.49c-0.03,-0.74 0,-1.52 0,-2.25c-0.57,-0.23 -2.05,-0.68 -2.24,-1.24c-0.1,-0.29 0.12,-0.74 0,-1c0.65,0.18 0.55,-0.41 1.25,0c0.82,0.48 0.33,1.62 1.99,1.49c0.98,-0.07 1.9,-1.16 2.24,-1.99c0,0 0.62,-0.33 0.25,-0.5c-0.41,-0.19 -0.89,-0.98 -0.74,-1.74c0.01,-0.12 0.67,-0.42 0.74,-0.5c0.59,-0.78 0.46,-1.39 0.75,-2.5c-0.22,-0.17 -0.44,-0.15 -0.5,-0.5c-0.08,0 -0.68,0.05 -0.75,0l0,-0.74c3.42,1.58 3.79,0.18 6.99,-0.75c0.07,-0.45 0.02,-1.42 0.25,-2c0.1,-0.29 0.89,-0.63 0.99,-0.99c0.14,-0.5 -0.1,-0.99 0,-1.5c-0.22,-0.18 -0.42,-0.16 -0.5,-0.5c-0.33,0 -0.95,0.13 -1.24,0c-0.17,-0.08 -0.4,-0.94 -0.5,-1c0.23,0 0.58,-0.38 0.75,-0.5c1.38,0.93 0.84,0.81 2.74,0.75c-0.06,-0.6 0.3,-0.4 0.25,-0.99c-0.03,-0.26 -0.73,-0.9 -0.75,-1c-0.17,-0.88 0.4,-1.11 0.5,-1.5c0.11,-0.48 -0.13,-1.03 0,-1.49c0.14,-0.54 0.93,-1.04 1.25,-1.5c-0.11,-0.18 0.03,-0.57 0,-0.75c-0.14,-0.57 -1.28,-0.96 -1.75,-1.24c0.61,-2.09 1.37,-2.76 1.75,-5.24c-0.21,-0.05 -0.67,-0.48 -0.75,-0.5c-1.5,-0.33 -2.23,1.18 -2.99,1.75c-0.14,0.09 -0.42,0.61 -0.5,0.74c-0.11,-0.5 -0.28,-1.69 -0.5,-2.49c-0.06,-0.2 -0.72,-0.79 -0.75,-1c-0.24,-1.48 1.22,-1.68 1.5,-2.74l0,-0.25c-0.05,0.19 -0.31,-0.73 -0.25,-1c0.08,-0.4 2.04,-3.83 1,-4.48c-1.49,-0.94 -2.39,0.53 -3.25,0.74c-0.15,0.03 -0.62,-0.06 -0.74,0c-0.07,-0.27 -0.47,-0.39 -0.5,-0.49c-0.28,-0.79 0,-2.16 0,-3c0.13,0.46 0.25,-0.25 0.25,-0.25c-0.86,-1.87 -0.68,-1.4 -2.75,-1.24c-0.22,0.86 -0.74,4.06 -1.49,4.49c-0.6,0.32 -1.42,-0.01 -2,0.25c-0.11,0.04 -0.7,0.73 -0.75,0.74c-0.54,0.12 -0.73,-0.31 -0.99,-0.25c0.29,0 -0.25,-0.74 -0.25,-0.74c-0.07,-0.91 0.92,-2.46 1,-3c0.12,-0.99 -0.38,-1.83 -0.5,-2.49l0.25,-0.75c0.46,0.1 1.02,-0.15 1.49,0c1.17,0.39 0.77,2.62 2.74,1.75c1.97,-0.88 0.79,-3.01 0.25,-4.24c-1.31,0.1 -1.87,0.08 -2.99,0.25c0.49,-1.69 0.33,-1.52 0,-3c-0.23,-0.03 -0.82,-0.31 -1.24,-0.49c0,0 -1.66,1.61 -1.25,1.74c1.07,0.33 0.49,3.18 0,3.99c-0.37,0.59 -1.58,0.97 -2.25,1.25c0.19,-3.19 -0.09,-2.51 2,-4.49c-0.3,-0.92 -0.23,-1.15 -0.5,-2c0.13,-0.1 0.68,-0.35 0.75,-0.49c0.22,-0.49 -0.21,-0.74 0.25,-1c0,0 -0.46,-1.3 -0.5,-1.5c0.25,0.16 0.74,0.09 1,0.25c0.15,0.1 0.34,0.7 0.5,0.75c0.27,0.09 1.2,-0.19 0.99,-0.25c0.05,-0.15 0.7,-0.36 0.75,-0.5c0.26,-0.75 -0.26,-1.99 0,-2.74c0.19,-0.55 1.54,-0.32 1.25,-1.99c-0.1,-0.57 -1.11,-1.14 -1.5,-1.5c0.75,-1.62 0.75,-0.97 0.25,-2.49c-0.37,-1.13 -0.69,-2.33 -1.74,-2.75c-2.73,-1.07 -3.09,0.47 -2.75,2.75c-0.18,0.13 -1.19,0.56 -1.25,0.74l0,0.5l-0.49,0c-0.19,-0.67 -0.05,-1.14 -0.5,-1.49l-0.25,-0.25c0.12,-0.12 -0.07,-0.59 0,-0.75l0.25,0c0.96,-0.48 1.35,-1.43 1.99,-2.24c-2.45,-0.45 -2.45,-1.55 -3.24,-4.24c0.59,-0.29 1.86,-1.23 2.5,-1.25c1.32,-0.06 1.01,0.69 1.49,1c0.45,0.28 0.76,-0.05 1.25,0.25c0.31,-0.22 0.65,-0.59 1,-0.75c-0.19,-0.73 0.07,-1.23 -0.25,-1.75c-0.04,-0.05 -1,-0.5 -1,-0.5c-0.24,-0.93 0.69,-0.91 0.5,-1.99c-0.1,-0.56 -0.98,-0.86 -1.25,-1.25c-0.22,-0.32 -0.06,-0.69 -0.25,-1c-0.43,-0.7 -1.52,-1.08 -2.24,-1.49c0.11,-0.48 -0.14,-1.03 0,-1.5c0.08,-0.27 0.95,-0.88 0.99,-1.24c0.14,-1.39 -1.31,-2.13 -2.24,-2.5c-0.51,-0.2 0.69,-0.55 1,-0.5l0.5,0.5c2.21,0.59 1.8,-1.55 1.74,-2.74c-0.32,-0.06 -0.36,-0.45 -0.5,-0.5c-1.21,-0.42 -2.79,0.96 -3.49,1.25l-0.5,-0.75c0.05,-0.15 0.7,-0.36 0.75,-0.5c0.14,-0.42 0,-1.05 0,-1.49c0.38,0.16 0.14,-0.41 0.75,-0.25c0.1,0.02 0.37,0.66 0.5,0.74c1.27,0.79 1.79,0.17 2.74,-0.49c-1.02,-2.54 -1.04,-3.53 -3.99,-2c0.04,-0.03 0,-0.7 0,-0.75c0.99,-0.43 1.48,-0.36 2,-1.24c0.06,-0.12 0.36,-0.19 0.5,-0.25c-0.12,-0.27 0.09,-0.73 0,-1c-0.17,-0.49 -1.13,-0.96 -1.25,-1.5c-0.32,-1.44 0.22,-2.51 0,-3.99c0.24,0.14 0.49,-0.42 0.99,0c0.54,0.45 0.08,2.51 0,3.5c0.48,-0.08 0.91,0.31 1.75,0c0.08,-0.04 0.18,-0.49 0.25,-0.5c0.02,-0.23 0.71,-0.65 0.5,-1.5c-0.02,-0.06 -0.53,-0.57 -0.5,-0.75c0.05,-0.36 1.11,-0.61 1,-1.99c-0.07,-0.82 -0.91,-0.58 -0.5,-1.75c0.02,-0.07 0.66,-0.62 0.75,-0.75c0,0 -0.06,-0.64 -0.25,-0.25c-0.16,-0.08 -0.27,-0.91 -0.5,-0.99c-0.51,-0.19 -1.45,0 -2,0l0,-0.5l0.25,0c0.04,-0.18 0.12,-1.14 0.25,-1.25c1.07,-0.95 2.23,0.11 3.49,-0.25c0.15,-0.04 0.51,-0.64 0.75,-0.75c0,-0.22 -0.1,-0.79 0,-0.99c-0.83,-1.02 -1.54,-1.58 -2.74,-2.25c0,-0.31 0.15,-1.24 0,-1.49c-0.3,-0.49 -0.79,-0.16 -1.25,-0.5c-0.57,-0.42 -0.81,-1.77 -0.99,-2.5c-0.28,-0.06 -0.4,-0.46 -0.5,-0.49c-3.11,-1.08 -1.95,2.53 -1.5,3.74c-0.44,0.14 -0.46,0.01 -0.75,0.25c-0.96,0.76 -0.84,0.66 -2.24,0.24c0.18,-0.3 -0.52,-0.34 -0.25,-0.49c1.4,-0.85 0.82,-2.45 0.75,-4.49l0.75,-0.25c1.25,-2.21 0.23,-2.07 -2,-2c0.17,2.51 0.53,1.8 -1.49,2.25c-1.31,-1.9 -1.81,-2.25 -4.24,-2.25c-0.1,0.21 -0.3,0.96 -0.5,1.25c0.09,0.15 0.71,0.65 0.75,0.75c-0.14,0.09 0,1.06 0,1.25c-0.7,0.13 -0.99,0.01 -1.5,0.24c-0.37,-1.41 -0.64,-3.56 -1.25,-4.73c0.73,-0.59 1.21,-0.96 1.75,-1.75c-0.21,-0.34 -0.17,-0.9 -0.25,-1.24c-0.17,-0.04 -1.28,-0.18 -1,0c-0.76,0.4 -0.8,0.06 -1.25,0.74c-0.11,0.16 -0.48,1.34 -0.49,1.5c-0.29,-0.07 -0.99,-0.26 -1,-0.25c-0.15,-0.2 -0.3,-0.62 -0.5,-0.75c-0.27,0.18 -0.41,-0.43 -0.5,-0.5c1.86,-1.04 1.91,-0.71 1.5,-2.74c-0.32,-0.05 -0.36,-0.45 -0.5,-0.5c-0.31,-0.11 -1.17,0.2 -1,0.25l-0.5,0c-0.37,0.13 -0.33,1.1 -0.75,1.25c-0.27,0.08 -0.74,-0.14 -0.99,0c-0.31,-1.16 -0.76,-2.86 -1.75,-3.24c-0.07,-0.03 -0.13,-0.03 -0.2,-0.03zm104.18,11.99c-0.21,0.32 -0.87,0.59 -1,1c-0.01,0.02 0.18,0.72 0.25,1c-0.27,0.05 -0.4,0.46 -0.5,0.5c-0.65,0.22 -1.51,0.16 -2,0.25c-0.18,2.32 -0.85,3.38 -0.74,5.23c-1,-1.86 -1.7,-1.71 -3.24,-0.5c-0.24,-0.29 -0.43,-1.06 -0.75,-1.24c-0.81,-0.45 -4.37,-0.22 -5.74,-0.5c-0.06,0.27 -0.47,0.39 -0.5,0.5c-0.32,0.91 0,2.51 0,3.49c-0.04,0.01 -0.5,0.25 -0.5,0.25c-0.17,-0.38 -0.46,-0.5 -0.74,-0.75c0.64,-2.14 0.07,-4.99 -2.5,-3.24c-0.32,0.21 -0.22,0.99 -0.5,1.25c-0.24,0.22 -0.98,0.38 -1.24,0.49c0.18,0.7 -0.07,1.17 0.25,1.75c0.48,0.88 2.64,0.75 2.99,1.75c0.15,0.41 -0.16,0.81 0,1.24c-0.09,0 -0.69,-0.05 -0.75,0c-0.78,-0.71 -1.06,-1.16 -1.49,-2.24c-0.84,-0.12 -2.23,0.05 -3.25,-0.25c-0.08,-0.03 -0.59,-0.73 -0.74,-0.75c-0.94,-0.15 -1.27,0.59 -2.25,0.25c-0.11,-0.04 -0.24,-0.45 -0.5,-0.5c1.31,-0.75 1.2,-0.62 1,-2.49l-0.75,-0.25c-0.21,0.29 -0.57,0.24 -0.75,0.5c-0.14,0.21 -0.07,1.1 -0.24,1.24c-0.6,0.47 -1.48,-0.1 -2,0.75c-0.22,0.35 -0.65,2.36 -0.75,2.74c-4.82,-1.41 -3.03,2.23 -5.98,2.25c0,0 -0.62,-0.23 -0.75,-0.25l0,-0.5c0.34,-0.12 0.89,0 1.25,0c-0.12,-0.08 0.21,-0.43 0.25,-0.5c-0.25,-0.2 -0.38,-0.13 -0.5,-0.5c-1.01,-0.18 -2.52,-0.63 -3.24,-0.5c-0.47,0.08 -1.11,1.02 -1.5,1.25c-0.93,0.54 -1.94,0.5 -2.99,1c-0.19,0.08 -0.51,0.69 -0.75,0.75c-0.84,0.15 -1.04,-0.49 -1.75,-0.25c-0.08,0.02 -0.43,0.65 -0.49,0.75c-0.9,1.13 -0.69,1.68 0,2.99c-0.58,0.14 -1.13,0.27 -2,0.5c0.12,-0.27 -0.1,-0.73 0,-1c0.03,-0.09 0.66,-0.44 0.75,-0.5c-0.16,-0.43 0.15,-0.83 0,-1.25c-0.06,-0.14 -0.64,-0.5 -0.75,-0.74c-0.51,0.21 -1.07,0.16 -1.5,0.25c-0.11,0.99 -0.38,2.73 -0.49,3.74c-0.78,0 -0.71,-0.11 -1.5,0c0.13,0.35 -0.13,0.88 0,1.24c0.13,0.39 1.35,0.77 1.75,1c-0.01,0.04 -0.1,1.39 -0.25,1c-0.16,0.25 0.1,0.46 0,0.74c-0.06,0.14 -0.62,0.52 -0.75,0.75l-0.5,0c-0.37,-0.79 -0.54,-1.38 -1,-1.99c-1.12,-1.49 -0.92,-0.61 -2.74,-1.25c-0.08,-0.03 -0.43,-0.72 -0.5,-0.75c-0.43,-0.15 -0.83,0.15 -1.25,0c-0.13,0.27 -0.69,0.56 -0.74,0.75c-0.24,0.72 0.05,1.45 -0.25,2c-0.5,0.86 -1.69,0.52 -2.5,0.99c-0.97,0.56 -1.48,2.75 -1.74,3.99c-1.99,-0.93 -0.77,-0.93 -2.74,0c0.08,0.43 -0.13,0.57 -0.25,1c1.03,0.74 1.06,0.81 2.24,1c-0.09,0.03 -0.05,0.91 -0.25,0.99c-0.29,0.13 -0.92,0 -1.25,0c-0.14,0.29 -0.69,0.74 -0.74,1c-0.24,1.01 0.44,2.04 0.5,2.74c0.03,0.5 -0.28,0.74 -0.25,1l-0.5,0c-0.52,-0.18 -0.98,-1.6 -1.5,-1.74c-0.8,-0.24 -0.88,0.27 -1.49,0.25c-0.64,2.15 -0.81,1.98 0.74,3.24c-0.5,0.45 0.11,3.25 0.25,4.24c-0.37,-0.37 -0.86,-0.64 -1.24,-1c0.51,0 -1.37,-0.21 -0.75,0c-0.29,0.24 -0.72,0 -1,0.25l0,0.5c-0.78,2.24 0.7,2.51 1.5,4.49c-0.09,0.07 0.04,0.63 0,0.74c-0.13,0.31 -1.33,0.66 -1.5,1c-0.12,0.23 0.04,0.74 0,1c-0.05,0.23 -0.73,1.17 -0.75,1.25c-0.12,0.47 0.11,1.01 0,1.49c0.45,0.39 1.41,1.01 1.75,1.5c0.27,0.4 0.17,0.92 0.5,1.24c0.35,0.35 0.94,0.34 1.24,0.75c0.74,1.01 1.38,3.6 1.75,4.99c0.37,0.08 0.88,0.02 1.25,0.25c-0.11,0.09 -0.18,0.64 -0.25,0.75c-0.24,0.32 -1.07,0.42 -1.25,0.74c-0.45,0.77 0.09,2.72 0,3.99c0.46,0.19 0.12,0.02 0.25,0.5c1,0.03 1.55,0.17 2.74,0c-0.11,0.27 0.07,0.71 0,1c-0.22,0.79 -1.67,1.36 -0.75,2.74c0.14,0.2 0.93,0.27 1,0.5c0.35,1.19 -0.84,1.85 0.25,2.49c0.3,0.18 1.38,0.43 1.74,0.5c-0.1,0.89 -0.51,2.07 0,3c0.09,0.15 0.71,0.33 0.75,0.49c0.16,0.59 -0.23,1.44 0,2c0.06,0.14 0.37,0.12 0.5,0.25c0.67,0.59 1.32,0.5 2,1c0.24,0.18 0.07,0.45 0.25,0.74c0.97,1.58 2.3,0.7 3.49,0c-0.14,1.74 -0.21,2.39 -0.5,3.99c0.18,0.05 1.49,0.37 1.24,0.25c0.69,-0.45 1.49,-0.29 1.75,-1.25c0.06,-0.26 -0.13,-0.77 0,-0.99c0.13,-0.24 0.9,-0.1 1,-0.25c0.09,0.2 -0.06,0.54 0,0.75c0.04,0.15 0.72,0.67 0.74,0.75c0.09,0.39 -0.33,1.43 -0.24,1.49c-0.16,0.05 -0.47,0.42 -0.5,0.5c0.04,0.04 0,0.68 0,0.75c1.23,0.54 1.56,0.7 3.49,0.5c0,0.14 -0.1,1.18 0,1.24c-0.2,0.3 -0.71,0.5 -1,0.75c0.08,0.23 0,0.75 0,1c0.36,0.14 0.33,0.41 0.5,0.75c1.36,-0.26 1.45,-0.24 2.24,-0.75c0.24,-0.16 1.09,-0.52 1.25,-0.75c0.44,-0.64 0.1,-1.37 0.75,-1.75c0.31,-0.18 0.88,0.1 1.25,0l0.49,-0.49c1.3,-0.31 0.83,0.1 1.75,0.25c-0.13,0.4 0,1.06 0,1.49c-0.69,0.25 -1.42,0.51 -1.99,0.75c0.04,0.41 0.24,1.74 0.24,1.74c0.39,0.06 0.79,0.39 1.5,0.25c0.34,-0.07 0.91,-0.79 1.25,-0.99c1.55,-0.99 2.44,-0.39 4.24,-1c0.1,-0.04 0.22,-0.45 0.49,-0.5c-0.11,-0.55 0.23,-1.25 0,-1.74l-0.24,0c-0.46,0 -0.92,-0.57 -1.25,-0.75c0,-0.46 0.1,-1.05 0,-1.5c0.22,-0.19 0.36,-0.75 0.75,-0.75l0.25,0c0.46,0.45 1.06,1.56 1.74,1.75c0.28,0.07 0.72,-0.11 1,0c-0.3,0.91 -0.2,1.26 -0.5,2.24c0.9,0.39 2.39,1.23 3.74,0.5c1.21,-0.66 0.36,-1.63 0.25,-2.24c-0.12,-0.65 0.28,-0.93 0.25,-1.25c1.66,-0.1 3.07,-0.36 4.74,-1c0.07,-0.04 0.17,-0.48 0.24,-0.49l0.5,0c0.37,-0.61 -0.03,-1.44 0.25,-2.25c0.18,-0.54 1.02,-0.82 1.25,-1.25c0.26,-0.5 0.03,-0.76 0.25,-1.24c1.07,0.04 3.36,0.14 4.49,-0.5c0.5,-0.3 0.77,-1.16 1.24,-1.5c0.22,-0.17 0.49,0.09 0.75,0c1.62,-0.63 0.52,-2.25 0,-2.99c0.87,-0.23 2.48,-0.48 2.75,-1.25c0.13,-0.4 -0.2,-1.14 0,-1.49l0.25,0c0.99,-0.51 1.7,-1.51 2.49,-2.25c0.25,0.12 0.71,-0.1 0.99,0c0.61,0.21 0.75,1.5 2.25,1c0.18,-0.06 0.47,-0.62 0.75,-0.75c-0.24,-0.38 -0.02,-0.92 -0.25,-1.25c-0.12,-0.15 -1.38,-0.69 -1.5,-0.99c-0.11,-0.27 0.16,-0.51 0,-0.75c2.35,-0.62 2.79,-0.51 2.49,-3.24c0.85,-0.53 1.66,-0.67 2.5,-1.25c0.26,-0.18 0.2,-0.55 0.5,-0.75c-0.18,-1.16 -0.48,-2.72 0.5,-3.24c1.82,-0.97 2.39,0.58 3.24,0.75c1.04,0.2 1.17,-0.39 1.74,-0.5c-0.06,-0.6 0.31,-0.4 0.25,-0.99c-0.02,-0.24 -0.55,-0.8 -0.5,-1.25c0.01,-0.12 0.73,-0.7 0.75,-0.75c0.11,-0.3 -0.14,-0.48 0,-0.75c-0.4,-0.18 -1.07,-0.51 -1.5,-0.75c0.73,-1.57 0.64,-2.11 0,-3.74c0.82,0.45 1.61,0.88 2.5,1.25c-0.06,0.01 1.25,0.02 1.49,0c0.19,-0.43 0.95,-2.79 1.25,-2.99c0.64,-0.46 1.57,-0.09 2.24,-0.5c0.53,-0.33 0.22,-1.41 0,-1.25c0.11,-0.4 -0.13,-0.86 0,-1.24c0.04,-0.11 0.45,-0.24 0.5,-0.5c1.97,0.15 2.26,0 3.49,-0.5c0.2,-1.79 0.21,-2.54 -0.99,-3.49c-0.13,-0.1 -0.7,-0.36 -0.75,-0.5c-0.19,-0.54 0.09,-1.18 0,-1.75c0.4,-0.11 0.4,0.21 0.5,-0.25c0.41,0.18 0.83,-0.18 1.24,0c0.32,0.14 0.21,1.06 0.5,1.25c1.47,1 3.33,0.31 3.74,-1c0.3,-0.96 -0.13,-0.94 -0.25,-1.74l-0.49,0l0.24,-2c-0.88,0.06 -1.02,0.04 -1.49,0c-0.16,-0.43 0.15,-0.82 0,-1.24c-0.06,-0.17 -0.65,-0.35 -0.75,-0.5c-0.26,-0.43 -0.03,-0.77 -0.25,-1.25c0.28,-0.15 0.45,-0.68 0.75,-0.75c0.16,-0.04 0.58,0.11 0.75,0c0.46,-0.33 0.72,-1.56 1.24,-1.74c0.56,-0.21 1.64,0.02 2.25,0c0.39,-1.35 0.84,-2.43 1.25,-3.49c-0.19,-0.13 -0.27,-0.87 -0.5,-1c-0.49,-0.28 -1.13,-0.26 -1.5,-0.5c-1.46,-0.93 1.64,-1.66 2.24,-2.24c0.24,-0.24 0,-0.77 0.26,-1c-0.28,-0.06 -3.4,-0.69 -3.5,-0.75c-0.13,-0.08 -0.85,-1.95 -0.99,-2.24c1.24,-0.41 1.4,-0.67 2.24,-1.25c-0.37,-0.33 -0.34,-0.94 -0.75,-1.24c-0.35,-0.27 -0.57,-0.13 -1,-0.25c0.01,-0.05 -0.18,-0.92 -0.25,-1.25c0.78,-0.37 1.34,-0.62 2,-1c-0.13,-0.36 0.12,-0.89 0,-1.25c-0.06,-0.16 -0.65,-0.35 -0.75,-0.49c-0.33,-0.54 -0.54,-1.5 -0.75,-2c-0.13,0.41 -0.25,-0.75 -0.25,-0.75c1.07,-0.62 0.29,-2.08 -0.99,-1.99l-0.5,0.5c-0.48,0.23 -0.83,0.31 -1.25,0.5c-0.01,0.04 -0.03,1.62 0,1.49c0.15,0.31 0.63,0.51 0.75,0.75c0.25,0.53 0.09,1.03 0.25,1.5c-0.55,-0.49 -0.99,-0.75 -1.5,-1.25c-0.43,0.15 -0.82,-0.16 -1.25,0c-0.31,0.1 -0.69,1.14 -0.99,1.25c-0.43,0.14 -0.83,-0.16 -1.25,0l-0.25,-0.5c-0.12,0.38 -0.25,-0.95 -0.25,-1c0.06,-0.05 0.73,-0.44 0.75,-0.5c0.18,-0.63 -0.3,-0.95 -0.25,-1.25l-0.5,0c-0.33,0.11 -0.65,1.27 -0.99,1.5c-0.17,0.11 -0.58,-0.05 -0.75,0c-0.17,0.04 -0.82,0.69 -1,0.75c-1.5,0.47 -2.86,0.5 -4.74,0.5c-0.44,0.92 -0.41,0.89 -0.75,2.24c-0.03,0 -0.74,-0.01 -0.74,0c-0.06,-0.6 -0.25,-1.78 -0.25,-2.74c0.56,-0.2 0.77,-0.12 1.49,-0.25c-0.08,-1.12 -0.08,-2.46 -0.5,-3.74c1.18,0.22 1.3,0.37 2.5,0l0.25,-0.5c0.43,-0.17 1.28,0 1.74,0c-0.04,-0.23 0.35,-0.49 0.25,-1c-0.19,-1.04 -1.63,-1.99 -2.24,-2.74c-0.27,0.37 0.01,0.62 -0.25,1c-0.2,0.27 -0.48,0.04 -0.75,0.25c-0.29,0.21 -0.51,0.94 -0.75,1.24c-0.04,-0.07 -0.68,-0.18 -0.75,-0.25c-0.21,-0.21 -0.15,-0.67 -0.24,-0.99c-0.27,-0.06 -0.4,-0.47 -0.5,-0.5c-0.93,-0.32 -1.44,0.33 -2,0.5l-0.25,-0.25c0.09,-1.5 -0.08,-1.69 -0.25,-2.75c-0.19,0 -0.83,0.11 -0.99,0z"/>
   </g>
  </g>
 </g>
</svg>